<svg width="360" height="370" viewBox="0 0 360 370" fill="none" xmlns="http://www.w3.org/2000/svg">
<g clip-path="url(#clip0_40_2)">
<path d="M180 1C261.691 1 328 68.9356 328 152.846C328 194.585 305.9 230.527 276.013 263.756C261.081 280.357 244.266 296.215 227.396 311.736C211.046 326.778 194.623 341.527 179.919 356.251C154.608 333.743 118.072 304.05 87.5605 269.538C56.457 234.356 32 194.572 32 152.846C32.0002 68.9356 98.3094 1 180 1Z" fill="#E0E1D8" stroke="black" stroke-width="4"/>
<path d="M133.308 265.892C133.308 266.45 133.317 266.883 133.308 267.317C133.258 269.217 132.308 270.2 130.408 270.208C126.9 270.233 123.383 270.225 119.875 270.225C115 270.225 110.117 270.233 105.242 270.225C102.975 270.225 102.125 269.392 102.117 267.167C102.1 261.75 102.217 256.333 102.067 250.925C102 248.725 103.383 247.133 103.825 245.175C103.958 244.575 104.242 244.008 104.492 243.442C104.783 242.783 105.058 242.108 105.442 241.508C106.158 240.4 106.967 239.358 107.708 238.267C107.825 238.092 107.825 237.808 107.808 237.583C107.65 236.1 107.325 234.625 107.325 233.15C107.308 195.633 107.308 158.117 107.358 120.6C107.358 118.6 106.767 116.492 108.025 114.6C108.108 114.475 107.975 114.133 107.85 113.967C106.917 112.75 107.092 111.533 107.508 110.858C107.058 109.083 106.75 107.767 106.383 106.467C106.267 106.05 106.025 105.658 105.8 105.283C105.675 105.083 105.358 104.967 105.3 104.758C104.55 102.133 102.183 100.133 102.342 97.15C102.392 96.225 102.325 95.3 102.342 94.3667C102.383 92.7167 102.333 91.3167 100.9 89.9333C99.1167 88.2083 99.275 85.725 100.108 83.475C100.833 81.5083 102.45 80.575 104.525 80.4417C105.492 80.375 106.458 80.2583 107.558 80.1417C109.425 56.1417 120.2 37.2667 140.517 24.175C153.792 15.625 168.525 12.3083 184.225 13.3333C218.783 15.5917 248.275 43.25 250.175 80.1083C251.158 80.2083 252.158 80.3083 253.158 80.4167C255.433 80.6583 256.967 81.8917 257.633 84.0333C258.375 86.4417 257.967 88.7167 256.058 90.4667C255.25 91.2083 254.95 91.925 255 92.975C255.067 94.5833 255.025 96.1917 255 97.8C254.975 99.2083 254.65 100.483 253.5 101.458C253.258 101.667 253.125 102.117 253.1 102.458C253.025 103.892 252.375 104.95 251.692 105.358C251.042 107.192 250.55 108.542 250.083 109.908C250.008 110.142 249.967 110.467 250.075 110.667C250.75 112 250.6 113.2 249.85 113.975C250.05 115.383 250.35 116.508 250.358 117.633C250.383 156.375 250.383 195.108 250.358 233.85C250.358 235.125 249.792 236.417 249.9 237.675C249.983 238.7 250.4 240.075 251.158 240.592C253.225 242.017 253.042 244.458 254.2 246.242C256.25 249.4 255.392 252.908 255.483 256.292C255.575 259.9 255.508 263.508 255.483 267.125C255.467 269.392 254.65 270.208 252.4 270.217C244.25 270.225 236.108 270.217 227.958 270.217C225.158 270.217 224.467 269.525 224.383 266.675C224.383 266.442 224.35 266.2 224.333 265.883H133.308V265.892ZM131.258 113.525C131.475 115.525 131.783 116.975 131.783 118.433C131.8 156.783 131.8 195.125 131.767 233.475C131.767 234.983 131.417 236.492 131.2 238.283C132.033 239.208 132.533 240.625 132.417 242.275C132.392 242.633 132.583 243 132.667 243.367C132.892 244.342 133.292 245.317 133.3 246.3C133.358 250.592 133.3 254.883 133.283 259.183C133.283 260.483 133.283 261.783 133.283 263.125H224.283C224.325 262.858 224.383 262.675 224.383 262.483C224.383 257.75 224.383 253.025 224.383 248.292C224.383 246.517 223.958 244.675 225.2 243.083C225.325 242.925 225.308 242.608 225.275 242.383C225.067 240.692 225.5 239.208 226.467 238.242C226.225 237.008 225.867 236.033 225.867 235.058C225.842 195.833 225.842 156.608 225.867 117.383C225.867 116.45 226.283 115.525 226.483 114.592C226.55 114.292 226.675 113.833 226.533 113.683C225.183 112.242 225.858 110.925 226.575 109.883C226.258 108.725 225.633 107.708 225.85 106.925C226.283 105.35 226.483 103.933 225.833 102.358C225.625 101.858 226.075 101.083 226.233 100.433C226.308 100.133 226.558 99.7333 226.45 99.5417C225.317 97.6167 225.958 95.525 225.867 93.5167C225.817 92.5 225.858 91.6583 224.608 91.3C224.05 91.1417 223.425 90.6583 223.15 90.15C222.5 88.95 221.517 88.8667 220.333 88.8667C192.575 88.9 164.825 88.925 137.067 88.925C135.908 88.925 134.9 88.95 134.258 90.175C133.992 90.6833 133.342 91.0917 132.775 91.3083C131.867 91.6583 131.792 92.2583 131.742 93.1083C131.617 95.2667 131.325 97.4167 131.133 99.575C131.108 99.825 131.208 100.133 131.342 100.35C132.092 101.558 132.008 102.717 131.308 103.925C131.133 104.217 131.083 104.783 131.25 105.042C132.133 106.392 132.017 107.683 131.25 109.025C131.1 109.292 131.033 109.792 131.175 110.008C132.167 111.433 132.017 112.733 131.233 113.533L131.258 113.525ZM245 79.7667C244.283 60.8667 233.733 37.2583 209.167 25.4333C183 12.8333 157.9 15.8417 135.383 34.325C121.225 45.9417 113.992 61.4833 112.75 79.7H125.2C126.317 65.7167 132.1 53.775 142.542 44.2917C153 34.7917 165.45 30.3 179.6 30.4C190.583 30.4833 200.642 33.5167 209.558 39.8833C223.275 49.675 231.05 63.0083 232.492 79.7667H245ZM228.383 80.1C227.25 56.2333 206.5 32.9167 176.475 34.3333C147.375 35.7 129.792 59.7583 129.333 79.775C130.975 80.5 132.767 80.8583 133.917 81.9167C135.067 82.975 135.567 84.7333 136.408 86.2833H221.375C222.675 81.2167 222.967 80.9583 228.375 80.1H228.383ZM231.042 236.275H245.292V115.95H231.042V236.275ZM126.533 236.342V115.933H112.575V236.342H126.533ZM107.325 249.267V265.15H127.975V249.267H107.325ZM250.342 249.3H229.725V265.158H250.342V249.3ZM126.55 92.5833H107.65V98.4917H126.55V92.5833ZM249.825 92.575H231.117V98.6C237.092 98.6 242.983 98.6167 248.867 98.5583C249.192 98.5583 249.758 97.95 249.783 97.6C249.883 95.9583 249.825 94.3 249.825 92.575ZM239.867 84.8917C236.117 84.8917 232.367 84.85 228.625 84.9417C228.075 84.9583 227.533 85.625 226.992 85.9917C227.458 86.4583 227.883 87 228.417 87.3667C228.692 87.55 229.175 87.45 229.558 87.4583C234.133 87.4583 238.708 87.475 243.283 87.475C245.717 87.475 248.15 87.475 250.583 87.4083C251.467 87.3833 252.492 87.2167 252.4 86.0083C252.325 84.9167 251.392 84.8917 250.525 84.8917C246.975 84.9 243.417 84.8917 239.867 84.8917ZM117.592 84.8917C114.283 84.8917 110.967 84.8667 107.658 84.9083C106.683 84.925 105.183 84.4333 105.125 86.0417C105.075 87.6917 106.6 87.425 107.65 87.4333C113.25 87.4667 118.85 87.45 124.442 87.4333C125.8 87.4333 127.183 87.5 128.517 87.2917C129.133 87.1917 130.083 86.55 130.133 86.075C130.25 85.0333 129.3 84.875 128.392 84.875C124.792 84.8917 121.183 84.875 117.583 84.8833L117.592 84.8917ZM108.517 247.017H128.55C128 244.558 127.9 244.492 125.608 244.492C121.125 244.492 116.642 244.625 112.167 244.417C110.083 244.325 109.05 245.075 108.517 247.017ZM249.033 247.058C247.992 244.475 247.992 244.483 245.417 244.483C240.933 244.483 236.458 244.483 231.975 244.467C229.867 244.467 229.492 244.808 229.208 247.058H249.033ZM248.842 100.783H230.842C230.917 101.6 230.983 102.292 231.058 103.1C231.8 103.1 232.425 103.1 233.058 103.1C237.192 103.1 241.325 102.975 245.45 103.142C247.308 103.217 247.942 102.142 248.842 100.783ZM108.633 100.775C109.55 102.575 110.7 103.225 112.567 103.15C116.7 102.983 120.833 103.1 124.975 103.092C125.492 103.092 126.008 103.042 126.558 103.017V100.775H108.642H108.633ZM126.517 105.417H110.95C111.578 106.983 112.619 107.767 114.075 107.767C116.458 107.767 118.85 107.767 121.233 107.767C122.975 107.767 124.708 107.767 126.508 107.767V105.417H126.517ZM231.025 107.758C235.125 107.758 239.025 107.633 242.917 107.808C244.833 107.9 246.033 107.417 246.558 105.45H231.033V107.75L231.025 107.758ZM231.075 112.042H245.083V110.092H230.917C230.983 110.867 231.025 111.442 231.075 112.042ZM111.133 242.075H127.342C126.958 240.55 126.133 240.033 124.592 240.1C121.242 240.242 117.883 240.258 114.533 240.125C112.925 240.058 111.883 240.567 111.133 242.075ZM246.417 242.15C245.65 240.425 244.375 240.042 242.617 240.117C239.367 240.258 236.1 240.225 232.842 240.117C231.325 240.067 230.7 240.783 230.275 242.15H246.408H246.417ZM112.55 112.042H126.517V110.033H112.55V112.042Z" fill="black"/>
<path d="M187.683 141.6C187.683 128.775 187.683 115.95 187.683 103.117C187.683 100.533 188.058 100.158 190.625 100.158C197.4 100.158 204.183 100.158 210.958 100.158C213.125 100.158 213.733 100.742 213.733 102.942C213.733 128.892 213.733 154.833 213.725 180.783C213.725 182.692 213.117 183.275 211.15 183.275C204.325 183.275 197.5 183.275 190.667 183.275C187.933 183.275 187.692 183.033 187.692 180.242C187.692 167.367 187.692 154.492 187.692 141.617L187.683 141.6ZM190.892 103.425V179.925H210.425V103.425H190.892Z" fill="black"/>
<path d="M170.175 141.7C170.175 154.675 170.175 167.65 170.175 180.625C170.175 182.783 169.692 183.267 167.517 183.267C160.542 183.267 153.567 183.267 146.6 183.267C144.542 183.267 144.033 182.758 144.033 180.658C144.033 154.658 144.033 128.667 144.042 102.667C144.042 100.725 144.617 100.158 146.567 100.158C153.642 100.15 160.708 100.15 167.783 100.158C169.633 100.158 170.192 100.733 170.192 102.633C170.192 115.658 170.192 128.675 170.192 141.7H170.175ZM147.283 103.408V179.908H166.875V103.408H147.283Z" fill="black"/>
<path d="M170.183 220.458C170.183 226.942 170.183 233.433 170.183 239.917C170.183 241.708 169.767 242.15 167.95 242.15C160.733 242.167 153.517 242.167 146.3 242.15C144.433 242.15 143.992 241.683 143.992 239.783C143.992 226.817 144.008 213.842 144.025 200.875C144.025 198.7 144.533 198.225 146.692 198.217C153.567 198.217 160.442 198.217 167.317 198.217C169.725 198.217 170.175 198.683 170.183 201.142C170.183 207.575 170.183 214.017 170.183 220.45V220.458ZM166.883 238.883V201.458H147.283V238.883H166.883Z" fill="black"/>
<path d="M187.675 220.167C187.675 213.633 187.675 207.092 187.675 200.558C187.675 198.683 188.125 198.233 190 198.225C197.075 198.217 204.142 198.217 211.217 198.225C213.05 198.225 213.717 198.85 213.717 200.667C213.717 213.742 213.717 226.817 213.708 239.883C213.708 241.642 213.2 242.158 211.45 242.167C204.283 242.183 197.108 242.175 189.942 242.167C188.058 242.167 187.675 241.75 187.675 239.783C187.675 233.25 187.675 226.708 187.675 220.175V220.167ZM190.875 238.875H210.442V201.475H190.875V238.875Z" fill="black"/>
<path d="M179.542 199.967C180.075 202.433 180.6 204.842 181.117 207.25C181.208 207.675 181.283 208.108 181.292 208.542C181.333 210.333 180.275 211.583 178.817 211.533C177.3 211.475 176.175 210.067 176.383 208.325C176.517 207.217 176.842 206.142 177.058 205.042C177.392 203.342 177.7 201.642 178.008 199.975C171.125 197.633 170.05 193 170.825 189.083C171.633 185.025 175.367 182.333 179.667 182.608C184.058 182.892 187.192 186.067 187.617 190.658C188.017 195 185.1 198.5 179.533 199.958L179.542 199.967ZM177.65 196.883C174.583 195.208 172.858 192.842 173.858 189.267C174.542 186.833 176.7 185.458 179.308 185.517C181.625 185.567 183.642 187.067 184.283 189.5C185.275 193.208 183.383 195.467 179.942 196.975C182.633 197.15 185.175 194.567 185.4 191.758C185.692 188.067 183.083 184.892 179.608 184.692C176.042 184.483 173.017 186.942 172.792 190.233C172.558 193.65 174.775 196.8 177.65 196.892V196.883ZM175.05 190.1C177.692 187.175 179.333 187.192 182.942 190.175C183.225 188.058 181.033 186.225 179.117 186.233C177.058 186.242 174.567 188.158 175.05 190.092V190.1ZM179.35 209.017C179.233 207.358 179.142 206.108 179.058 204.85C178.497 206.939 178.594 208.328 179.35 209.017Z" fill="black"/>
<path d="M178.825 81.1417C166.783 81.1417 154.742 81.1417 142.7 81.1417C140.75 81.1417 140.567 80.9417 140.692 79.0667C141.883 61.8083 153.317 48.1917 170.075 44.075C190.333 39.1 211.725 52.225 216.325 72.5083C216.808 74.6333 216.992 76.8333 217.242 79C217.442 80.8 217.1 81.1333 215.25 81.1333C203.108 81.1333 190.967 81.1333 178.833 81.1333L178.825 81.1417ZM213.817 77.875C213.008 61.3917 196.667 43.8667 174.467 46.575C165.1 47.7167 157.442 52.1417 151.492 59.4167C147.133 64.7583 144.5 70.85 144.025 77.875H213.808H213.817Z" fill="black"/>
</g>
<defs>
<clipPath id="clip0_40_2">
<rect width="360" height="360" fill="white"/>
</clipPath>
</defs>
</svg>
