<svg width="360" height="370" viewBox="0 0 360 370" fill="none" xmlns="http://www.w3.org/2000/svg">
<g clip-path="url(#clip0_36_5)">
<path d="M180 8C261.733 8 328 74.4438 328 156.418C328 197.271 308.589 232.419 280.103 265.87C251.932 298.95 215.192 330.041 179.98 363.268C149.649 335.427 112.974 304.355 83.6465 270.004C53.8749 235.133 32 197.236 32 156.418C32 74.4438 98.2671 8 180 8Z" fill="#E0E1D8" stroke="#14894F" stroke-width="4"/>
<path d="M135.48 264.55C135.48 263.84 135.48 263.21 135.48 262.58C135.49 237.42 135.52 212.25 135.48 187.09C135.48 185.38 135.77 183.96 137.14 182.95C139.81 180.98 140.68 178.38 140.16 175.18C140.06 174.55 140.07 173.88 140.16 173.25C140.75 169.22 139.83 165.81 136.42 163.24C135.89 162.84 135.56 161.84 135.56 161.11C135.51 142.03 135.24 122.95 135.61 103.88C135.88 89.83 142.24 78.47 153.45 70.11C174.66 54.28 206.56 59.94 220.24 84.67C223.87 91.24 225.69 98.29 225.69 105.79C225.69 151.02 225.67 196.26 225.66 241.49C225.66 248.45 225.64 255.42 225.63 262.38C225.63 263.07 225.63 263.75 225.63 264.54H135.48V264.55ZM145.49 113.98V188.24H174.8V113.98H145.49ZM215.65 188.32V113.99H186.61V188.32H215.65ZM171.31 101.91C173 94.18 175.41 91.28 180.46 91.53C182.27 91.62 184.25 92.34 185.76 93.36C188.66 95.32 189.53 98.52 189.67 101.89H216.95C215.43 89.53 209.16 80.38 198.62 74.54C185.52 67.29 172.22 67.8 159.68 76.08C150.56 82.1 145.3 90.75 144.19 101.91H171.3H171.31ZM174.76 256.46V201.47H145.45V256.46H174.76ZM186.55 256.43H215.64V201.49H186.55V256.43Z" fill="#14894F"/>
<path d="M271.96 100.92C273.06 100.92 274.05 100.91 275.03 100.92C276.68 100.94 277.85 101.79 277.7 103.01C277.53 104.39 276.72 105.22 275.21 105.16C274.98 105.16 274.75 105.19 274.41 105.22C273.66 111.74 269.79 115.99 264.23 118.92C263.03 119.56 262.68 120.33 262.68 121.68C262.72 163.29 262.72 204.91 262.68 246.52C262.68 247.95 263.24 248.6 264.36 249.19C268.89 251.57 272.33 254.99 273.62 260.05C274.23 262.44 274.23 264.99 274.53 267.66C273.63 267.72 273.07 267.79 272.52 267.79C261.34 267.8 250.16 267.82 238.98 267.79C237.96 267.79 236.8 267.69 235.97 267.2C235.3 266.8 235.03 265.73 234.4 264.65H227.29C227.29 263.89 227.29 263.32 227.29 262.75C227.3 210.6 227.1 158.45 227.44 106.3C227.58 85.04 212.79 64.79 190.14 60.32C163.14 54.99 139.12 71.6 134.27 97.73C133.77 100.41 133.68 103.2 133.67 105.94C133.61 124.38 133.63 142.81 133.57 161.25C133.57 162.64 133.84 163.78 134.95 164.63C137.46 166.54 138.4 169.04 137.92 172.13C137.86 172.53 137.86 172.96 137.92 173.36C138.52 177.35 137.51 180.7 134.23 183.27C133.82 183.59 133.57 184.37 133.57 184.94C133.57 207.82 133.59 230.71 133.61 253.59C133.61 257.2 133.61 260.82 133.61 264.54H126.69C125.57 267.59 125.28 267.8 122.1 267.81C110.98 267.81 99.86 267.81 88.74 267.81C88.28 267.81 87.81 267.77 87.36 267.75C86.11 260.8 88.67 253.91 94.94 250.29C97.7 248.7 98.36 246.96 98.36 243.96C98.25 203.28 98.28 162.6 98.33 121.93C98.33 120.38 97.89 119.55 96.51 118.8C91.42 116.04 87.63 112.21 86.69 106.16C86.63 105.79 85.99 105.34 85.54 105.22C84.24 104.87 83.64 104.02 83.76 102.79C83.88 101.49 84.77 100.9 86.08 100.93C87.01 100.95 87.94 100.93 88.95 100.93C88.91 96.91 89.36 93.05 91.94 89.96C93.44 88.16 95.48 86.82 97.23 85.23C97.69 84.82 98.24 84.29 98.34 83.74C101.55 66.6 109.49 51.99 122.02 39.95C134.61 27.84 149.58 20.29 166.91 17.67C191.62 13.93 213.94 19.68 233.36 35.41C248.69 47.82 258.44 63.84 262.29 83.3C262.51 84.41 262.87 85.11 263.98 85.66C269.28 88.27 272.6 94.64 271.94 100.93L271.96 100.92ZM267.58 100.82C268.36 95.59 265.44 90.63 260.44 88.86C259.1 88.39 258.7 87.65 258.49 86.38C258.08 83.91 257.63 81.43 256.96 79.02C245.63 38.17 204.29 12.87 161.33 23.11C131.17 30.3 106.92 55.58 102.46 86.11C102.23 87.71 101.59 88.45 100.08 89C95.25 90.76 92.51 95.84 93.55 100.84H125.92C129.42 71.71 151.44 53.67 175.69 51.8C188.99 50.78 201.35 53.81 212.28 61.67C225.68 71.32 233.07 84.54 235 100.81H267.57L267.58 100.82ZM270.01 263.74C269.61 259.58 267.62 256.63 264.45 254.43C263.26 253.6 261.96 252.92 260.68 252.22C259.11 251.37 258.38 250.22 258.39 248.3C258.45 205.58 258.47 162.86 258.42 120.14C258.42 118.01 259.29 116.76 260.96 115.77C262.51 114.84 264.1 113.95 265.54 112.87C268.06 110.98 269.61 108.45 270.08 105.21H235.29V263.74H270.01ZM90.89 105.19C91.47 108.7 93.23 111.24 95.86 113.17C97.26 114.2 98.81 115.05 100.32 115.94C101.97 116.91 102.77 118.23 102.7 120.24C102.57 124.1 102.62 127.97 102.62 131.83C102.62 170.58 102.6 209.33 102.66 248.08C102.66 250.21 101.92 251.47 100.11 252.38C98.76 253.06 97.43 253.83 96.21 254.72C93.23 256.91 91.72 259.91 91.45 263.7H125.74V105.18H90.89V105.19Z" fill="black"/>
<path d="M147.94 116.44H172.36V185.78H147.94V116.44ZM162.85 155.97C162.28 161.42 160.34 163.88 155.42 164.68C153.97 164.92 152.42 164.49 150.91 164.54C150.32 164.56 149.75 165.03 149.17 165.29C149.47 165.84 149.7 166.45 150.09 166.92C150.32 167.19 150.82 167.24 151.2 167.36C156.54 168.93 163.25 165.41 165.05 160.05C165.53 158.62 165.82 157.14 166.04 156.31C167.28 155.46 168.08 154.92 168.89 154.37C168.21 153.7 167.53 153.03 166.85 152.36C166.51 151.46 166.56 150.29 166.49 149.13C166.43 148.15 166.36 147.13 166.06 146.21C165.28 143.88 162.71 142.32 160.11 142.45C157.63 142.58 155.87 144.01 155.34 146.33C154.77 148.82 156.84 151.09 159.22 150.46C159.75 150.32 160.37 149.54 160.49 148.96C160.87 147.02 158.97 147.61 158.07 147.12C158.21 145.71 159.15 145.42 160.19 145.39C161.51 145.35 162.81 145.83 163.13 147.14C163.5 148.62 163.42 150.22 163.43 151.78C163.43 152.03 162.98 152.44 162.67 152.51C161.64 152.74 160.08 152.48 160.27 154.03C160.35 154.7 161.76 155.21 162.84 155.98L162.85 155.97Z" fill="black"/>
<path d="M189.05 116.43H213.41V185.82H189.05V116.43ZM194.01 155.37C195.2 158.1 196.02 160.75 197.43 163.02C199.84 166.88 205.94 168.83 210.01 167.39C210.91 167.07 211.85 166.74 211.5 165.47C211.18 164.28 210.26 164.51 209.36 164.61C208.32 164.73 207.26 164.85 206.22 164.81C201.56 164.64 197.35 159.87 197.92 155.45C198.49 155.34 199.09 155.31 199.62 155.09C200.15 154.88 200.6 154.48 201.09 154.17C200.58 153.61 200.17 152.88 199.54 152.55C198.86 152.2 197.99 152.22 197.23 152.09C196.63 148.14 197.79 145.61 200.41 145.29C201.69 145.13 202.76 145.59 202.9 146.82C201.97 147.42 201.06 147.74 200.6 148.39C200.35 148.74 200.76 150.12 201.06 150.19C202.07 150.41 203.28 150.54 204.2 150.18C206.15 149.41 206.51 146.45 205.04 144.58C203.79 142.99 202.14 142.19 200.13 142.47C197.42 142.86 195.41 144.35 194.66 147.01C194.18 148.72 194.19 150.57 193.97 152.43C193.11 153.04 190.93 152.15 191.16 154.27C191.37 156.2 193.18 154.97 193.98 155.36L194.01 155.37Z" fill="black"/>
<path d="M213.89 99.43H192.01C191.33 95.64 189.57 92.49 186.15 90.43C183.9 89.07 181.46 88.73 178.91 88.99C174.11 89.48 170.33 93.47 169.14 99.4H147.05C147.91 93.72 150.37 88.81 154 84.49C160.42 76.85 168.72 72.69 178.65 72.2C199.1 71.2 212.43 87.15 213.89 99.44V99.43Z" fill="black"/>
<path d="M172.33 253.97H147.92V203.98H172.33V253.97Z" fill="black"/>
<path d="M213.37 253.99H189.06V203.94H213.37V253.99Z" fill="black"/>
</g>
<defs>
<clipPath id="clip0_36_5">
<rect width="360" height="370" fill="white"/>
</clipPath>
</defs>
</svg>
