<svg width="360" height="370" viewBox="0 0 360 370" fill="none" xmlns="http://www.w3.org/2000/svg">
<g clip-path="url(#clip0_40_38)">
<path d="M180 1C261.738 1 328 67.2619 328 149C328 189.619 301.848 229.378 269.833 264.596C253.866 282.16 236.53 298.499 220.442 313.155C205.061 327.168 190.753 339.703 179.982 350.218C159.03 330.277 122.727 300.785 91.1064 265.91C58.7721 230.248 32 189.615 32 149C32 67.2619 98.2619 1 180 1Z" fill="#E0E1D8" stroke="white" stroke-width="4"/>
<g clip-path="url(#clip1_40_38)">
<path d="M255.825 87.8333C257.067 87.8333 258.183 87.8333 259.3 87.8333C261.108 87.8333 261.875 89.0833 260.8 90.5667C260.025 91.6417 258.9 92.4833 257.875 93.3667C257.367 93.8083 256.767 94.1833 256.142 94.4333C255.225 94.8 255.025 95.3583 255.033 96.325C255.042 97.125 254.758 98.1417 254.225 98.6917C252.7 100.25 252.167 101.992 252.342 104.125C252.483 105.833 252.533 107.6 250.433 108.408C250.208 108.5 250.167 109.267 250.167 109.717C250.15 136.108 250.142 162.492 250.142 188.883C250.142 210.25 250.158 231.608 250.117 252.975C250.117 254.25 250.483 254.783 251.675 255.283C255.892 257.025 258.083 260.358 258.5 264.842C258.717 267.25 256.9 268.892 254.208 268.883C247.333 268.867 240.458 268.858 233.575 268.85C232.067 268.85 230.55 268.842 229.042 268.875C225.425 268.95 223.933 267.2 224.625 263.683C224.692 263.35 224.758 263.025 224.842 262.617H136.642C136.717 263.058 136.767 263.467 136.867 263.858C137.608 266.817 136.008 268.925 133 268.917C125.583 268.9 118.175 268.875 110.758 268.858C109.392 268.858 108.025 268.933 106.658 268.875C104.117 268.775 102.533 266.85 102.908 264.367C103.55 260.158 105.733 257.025 109.65 255.3C110.808 254.792 111.075 254.183 111.075 253.025C111.05 211.617 111.058 170.2 111.058 128.792C111.058 122.4 111.05 116.008 111.067 109.625C111.067 108.85 110.8 108.408 110.233 107.825C109.583 107.142 109.067 105.933 109.15 105.017C109.392 102.458 108.8 100.367 106.975 98.5C106.417 97.925 106.217 96.8583 106.142 95.9917C106.075 95.225 105.875 94.8167 105.2 94.4083C103.875 93.6083 102.592 92.7083 101.425 91.7C100.875 91.225 100.467 90.4417 100.292 89.7333C99.9667 88.4417 100.542 87.8417 101.892 87.8333C103.15 87.8167 104.408 87.8333 105.75 87.8333C105.842 86.075 105.942 84.4333 106.017 82.7917C106.558 71.15 110.217 60.4833 116.392 50.6917C127.658 32.8333 143.825 21.9917 164.392 17.5583C171 16.1333 177.7 15.4667 184.425 15.8917C212.067 17.6583 233.192 30.2 247.133 54.3333C251.558 61.9917 254.233 70.2917 255.267 79.0833C255.6 81.925 255.633 84.8 255.808 87.8333H255.825ZM132.125 255.417H229.267C229.267 254.575 229.267 253.858 229.267 253.142C229.267 229.925 229.275 206.708 229.275 183.492C229.275 154.375 229.275 125.25 229.3 96.1333C229.3 95.1667 229.033 94.6667 228.158 94.225C226.867 93.5667 225.617 92.7833 224.492 91.875C223.858 91.3583 223.317 90.5417 223.092 89.7583C222.708 88.45 223.275 87.85 224.633 87.8417C226.133 87.825 227.625 87.8417 229.317 87.8417C229.458 69.4333 221.958 55.2917 206.6 45.5417C190.492 35.3167 168.3 36.0167 152.675 47.0583C138.658 56.9583 132.125 70.675 132.092 87.8583C133.667 87.8583 134.975 87.7833 136.283 87.8917C136.933 87.9417 138 88.2 138.1 88.5667C138.283 89.25 138.158 90.35 137.7 90.8167C136.517 92.0083 135.192 93.1417 133.725 93.925C132.458 94.6083 132.092 95.3417 132.092 96.7333C132.133 149.117 132.125 201.5 132.125 253.892C132.125 254.375 132.125 254.858 132.125 255.425V255.417ZM247.1 87.8083C247.142 62.35 236.692 42.5417 214.85 29.9583C190.2 15.75 165.242 16.9167 141.867 33.225C123.2 46.25 114.225 64.7917 114.442 87.7833H123.3C122.8 72.0083 128 58.425 139 47.1583C149.983 35.9167 163.375 30.0417 179.108 29.5583C192.908 29.1333 205.433 32.925 216.292 41.4083C231.292 53.125 238.892 68.55 238.15 87.8167H247.1V87.8083ZM123.258 255.392V108.383H113.075V255.392H123.258ZM248.167 255.417V108.392H238.2V255.417H248.167ZM133.692 257.35C133.625 257.467 133.567 257.575 133.5 257.692C134.7 258.15 134.675 259.908 136.408 259.908C165.617 259.883 194.833 259.9 224.042 259.908C226.083 259.908 226.733 259.442 227.608 257.358H133.692V257.35ZM137.825 32.5833C127.058 39.7667 118.567 48.925 113.275 60.8417C109.475 69.4 107.658 78.3667 107.883 87.85C108.925 87.85 109.8 87.85 110.667 87.85C110.95 87.85 111.225 87.8167 111.592 87.7917C111.292 65.0333 120.608 46.925 137.817 32.575L137.825 32.5833ZM253.75 87.7833C253.892 75.0917 250.592 63.4667 243.908 52.85C238.692 44.575 231.833 37.8583 223.575 32.5833C231.958 39.2583 238.642 47.3 243.35 56.95C248.075 66.65 250.242 76.9083 249.817 87.775H253.758L253.75 87.7833ZM255.367 261.025C253.8 259.008 252.483 257.258 249.792 257.292C244.142 257.358 238.492 257.3 232.833 257.308C230.875 257.308 228.658 259.008 227.975 261.025H255.358H255.367ZM106.142 260.967H133.692C132.05 258.95 130.775 257.125 127.867 257.242C122.667 257.442 117.442 257.417 112.233 257.258C109.35 257.167 107.892 258.908 106.133 260.967H106.142ZM225.833 89.925C227.125 91.3333 228.5 92.6667 230.442 92.6833C238.242 92.75 246.05 92.7583 253.85 92.7C255.8 92.6833 257.225 91.4417 258.425 89.925H225.833ZM135.442 89.975H102.958C104.208 91.4083 105.475 92.6833 107.5 92.6833C115.008 92.6833 122.508 92.65 130.017 92.725C132.325 92.75 133.933 91.575 135.442 89.975ZM105.017 264.333C104.875 266.342 105.45 266.967 107.308 266.967C115.733 266.967 124.167 266.967 132.592 266.967C132.883 266.967 133.283 267.075 133.45 266.925C134.05 266.392 134.925 265.825 135.033 265.167C135.225 264.017 134.083 264.367 133.45 264.367C125.95 264.333 118.45 264.333 110.942 264.333C109 264.333 107.058 264.333 105.008 264.333H105.017ZM226.542 264.4C226.317 266.208 226.925 266.967 228.608 266.967C234.067 266.983 239.517 266.967 244.975 266.967C248.092 266.967 251.208 266.983 254.325 266.967C255.633 266.958 256.667 266.133 256.533 265.158C256.358 263.85 255.25 264.392 254.558 264.392C245.642 264.342 236.733 264.35 227.817 264.342C227.383 264.342 226.958 264.383 226.542 264.4ZM127.867 96.8167H108.725C109.75 98.9917 110.517 99.5 112.55 99.5C116.55 99.5 120.542 99.5 124.542 99.4833C126.517 99.4833 127.183 98.95 127.867 96.8167ZM233.55 96.8C234.375 99.0917 234.925 99.5 236.958 99.5C240.858 99.5 244.758 99.3667 248.65 99.5333C250.733 99.6167 251.717 98.5833 252.658 96.8H233.55ZM111.292 106.15H124.767V103.85H111.175C111.217 104.7 111.25 105.4 111.292 106.15ZM236.592 106.267C240.575 106.267 244.467 106.267 248.367 106.267C249.839 106.267 250.467 105.467 250.25 103.867H236.475C236.517 104.708 236.558 105.425 236.6 106.267H236.592Z" fill="white"/>
<path d="M145.675 180.867H174.525V94C173.833 94.0583 173.192 94.1083 172.417 94.175V177.733H148.892C148.867 177.275 148.825 176.767 148.825 176.258C148.825 151.917 148.858 127.575 148.8 103.242C148.8 100.042 150.083 97.85 152.808 96.3583C156.967 94.0833 161.475 92.9333 166.108 92.2667C169.092 91.8333 172.117 91.7167 175.125 91.4083C176.233 91.2917 176.683 91.5833 176.675 92.8167C176.642 122.375 176.642 151.933 176.633 181.492C176.633 181.875 176.583 182.25 176.558 182.733C176.075 182.775 175.65 182.842 175.225 182.842C165.325 182.825 155.425 182.775 145.517 182.792C144.233 182.792 143.758 182.517 143.8 181.1C143.9 177.15 143.808 173.2 143.783 169.25C143.783 168.733 143.717 168.225 143.692 167.908C142.7 168.925 141.692 169.925 140.733 170.975C140.475 171.258 140.25 171.7 140.242 172.075C140.2 174.608 140.108 177.158 140.283 179.683C140.367 180.9 140.95 182.1 141.358 183.283C142.058 185.317 142.717 187.342 142.125 189.55C141.558 191.633 140.208 192.975 138.625 192.908C137.042 192.833 135.517 191.2 135.417 189.125C135.342 187.642 135.217 185.942 135.825 184.683C137.575 181.092 137.475 177.35 137.45 173.55C137.45 172.275 137.425 171.25 136.117 170.35C134.492 169.225 134.058 167.217 133.825 165.308C133.35 161.458 133.383 157.625 134.783 153.933C135.625 151.717 137.1 150.667 139 150.75C140.592 150.817 141.6 151.808 142.342 153.05C142.9 153.992 143.267 155.042 143.833 156.292C143.833 155.383 143.833 154.725 143.833 154.067C143.833 131.483 143.975 108.9 143.792 86.3167C143.642 68.3583 157.417 53.0583 174.3 50.2667C192.842 47.2 210.925 57.9667 216.192 75.8667C217.158 79.1333 217.75 82.65 217.758 86.05C217.883 117.95 217.85 149.85 217.858 181.75C217.858 181.992 217.842 182.233 217.817 182.65H185.117C185.117 182.092 185.117 181.567 185.117 181.05C185.108 151.733 185.1 122.417 185.075 93.1C185.075 92.1583 185.1 91.5417 186.333 91.55C193.1 91.5667 199.725 92.4083 206.067 94.8917C207.325 95.3833 208.542 96.0333 209.7 96.725C211.933 98.05 212.967 100.008 212.958 102.667C212.917 119.742 212.942 136.808 212.95 153.883C212.95 161.25 212.95 168.617 212.95 175.983C212.95 176.508 212.95 177.042 212.95 177.733H189.1V94.0583H187.167V180.867H215.858C215.858 180.367 215.858 179.858 215.858 179.35C215.858 148.525 215.7 117.692 215.942 86.8667C216.083 69.3917 203.05 54.6917 186.433 52.0583C169.933 49.45 153.608 58.6 147.833 73.9667C146.417 77.75 145.667 81.6417 145.667 85.6667C145.667 116.983 145.667 148.3 145.675 179.608C145.675 179.992 145.675 180.375 145.675 180.892V180.867ZM208.492 172.342C208.492 171.583 208.492 170.958 208.492 170.342C208.492 148.4 208.475 126.467 208.475 104.525C208.475 99.0417 208.508 98.9417 203.242 97.3C199.9 96.2583 196.45 95.5667 192.933 94.6917V172.35H208.492V172.342ZM168.617 95.0417C167.658 95.2 166.892 95.3 166.133 95.4417C162.158 96.1917 158.267 97.2 154.65 99.0833C153.758 99.55 153.167 100.067 153.167 101.292C153.217 124.358 153.2 147.433 153.2 170.5C153.2 171.108 153.2 171.725 153.2 172.283H168.617V95.0333V95.0417ZM141.367 158.067C141.175 157.117 141.1 156.542 140.942 155.983C140.642 154.925 140 154.067 138.842 154.058C137.583 154.058 136.975 155 136.717 156.117C136.25 158.158 136.817 159.958 138.158 161.533C138.85 162.333 139.617 162.217 140.05 161.383C140.633 160.25 141.008 159 141.367 158.067ZM138.35 171.267C139.775 169.933 138.858 168.358 139.575 167.183C139.717 167.408 139.867 167.633 140.008 167.867C140.175 167.808 140.35 167.75 140.517 167.692C140.333 167 140.358 165.983 139.908 165.7C139.292 165.308 138.258 165.242 137.533 165.467C136.675 165.725 136.6 167.325 137.35 167.425C138.4 167.575 138.1 168.233 138.175 168.75C138.275 169.45 138.283 170.175 138.35 171.267ZM139.95 188.517C139.4 187.975 139.042 187.625 138.683 187.275C138.408 187.6 137.875 187.975 137.925 188.233C138.017 188.75 138.442 189.208 138.733 189.692C139.075 189.367 139.408 189.042 139.958 188.517H139.95Z" fill="black"/>
<path d="M176.367 83.9833C172.15 82.4667 168.158 81.025 164.15 79.6083C161.908 78.8167 159.633 78.1167 157.408 77.275C156.292 76.85 155.633 77.1083 155.283 78.2C154.9 79.425 155.283 80.0917 156.625 80.3833C161.517 81.425 166.408 82.4417 171.308 83.45C173.017 83.8083 174.733 84.1417 176.45 84.4667C178.133 84.7833 178.819 85.8417 178.508 87.6417C176.217 87.8917 173.908 88.125 171.592 88.3917C165.717 89.075 160.025 90.45 154.558 92.725C151.85 93.85 150.325 93.275 149.308 90.525C147.967 86.9167 147.967 83.225 149.8 79.7833C150.467 78.5333 151.75 77.6083 152.925 76.3417C152.108 74.9167 151.667 73.0333 152.475 71.025C153.242 69.1083 154.458 67.5 156.267 66.5417C157.433 65.9167 159.1 66.0167 160.017 65.2C160.933 64.3917 161 62.7 161.783 61.6583C164.167 58.4583 167.758 57.5417 171.958 58.8583C175.142 54.575 176.883 54.075 180.842 56.3083C184.508 54.0083 187.325 54.85 189.55 59C191.983 57.8667 194.425 57.95 196.767 59.2667C199.067 60.5583 200.783 62.3333 201.05 65.2333C204.017 65.3583 206.367 66.675 208.05 69.075C209.783 71.5333 209.925 74.1167 208.275 76.775C211.708 78.05 212.767 80.8167 212.892 83.9667C212.975 85.975 212.817 88.075 212.3 90.0083C211.475 93.0833 209.525 93.8667 206.642 92.6C200.558 89.925 194.158 88.6167 187.575 88.1C186.6 88.025 185.625 87.8 184.667 87.8583C183.275 87.95 182.692 87.4083 182.8 86.0417C182.825 85.75 182.8 85.4583 182.8 84.9583C185.758 84.3583 188.742 83.7583 191.717 83.1583C196.142 82.2583 200.567 81.35 205 80.4583C206.108 80.2333 206.583 79.6083 206.3 78.475C205.983 77.1917 205.183 77.075 204.067 77.45C197.817 79.5667 191.567 81.6667 185.092 83.8417C191.042 79.375 196.858 75.0083 202.675 70.6417C201.567 68.6 201.25 68.5 199.425 69.8C194.15 73.55 188.892 77.3167 183.608 81.0583C183.133 81.4 182.542 81.5833 182.008 81.8417C181.867 81.7417 181.725 81.65 181.592 81.55C182.092 79.3 182.558 77.05 183.092 74.8167C184.175 70.2833 185.283 65.7583 186.392 61.2333C186.792 59.6083 186.633 59.3917 184.608 59.2417C183.383 65.6917 182.15 72.1583 180.917 78.6333C180.833 78.65 180.75 78.675 180.667 78.6917C179.4 72.225 178.133 65.75 176.875 59.3C174.792 59.5667 174.733 59.6917 175.183 61.5667C176.608 67.5167 178.008 73.4667 179.4 79.425C179.558 80.1167 179.567 80.85 179.642 81.5583C179.533 81.6667 179.417 81.775 179.308 81.875C178.692 81.525 178.033 81.2333 177.467 80.8167C171.917 76.7917 166.375 72.7417 160.758 68.6417C160.025 69.3 159.425 69.8417 158.667 70.525C164.6 75.025 170.392 79.425 176.375 83.9583L176.367 83.9833ZM186.792 72.375C186.892 72.4417 186.983 72.5083 187.083 72.5833C189.733 69.7083 192.375 66.8417 195.1 63.8833C194.367 63.35 193.633 62.8167 192.692 62.1333C190.667 65.65 188.725 69.0167 186.792 72.375ZM174.417 72.75C174.5 72.6917 174.575 72.6417 174.658 72.5833C172.717 69.1583 170.783 65.7417 168.783 62.225C167.858 62.8 167.1 63.2667 166.283 63.775C169.075 66.8583 171.742 69.8083 174.417 72.75ZM164.483 85.1917V84.9167C160.758 84.5 157.033 84.0917 153.283 83.675V86.4333C157.1 86.0083 160.792 85.6 164.483 85.1917ZM208.283 86.4C208.342 85.4417 208.392 84.6417 208.45 83.6417C204.625 84.1 200.983 84.5333 197.35 84.9667C197.35 85.0417 197.35 85.1167 197.35 85.1833C200.917 85.5833 204.475 85.975 208.275 86.4H208.283Z" fill="black"/>
<path d="M185.225 190.317H217.717V245.45H185.225V190.317ZM187.192 192.075V243.55H215.758V192.075H187.192Z" fill="black"/>
<path d="M176.55 245.542H143.95V190.358H176.55V245.542ZM145.8 192.067V243.567H174.508V192.067H145.8Z" fill="black"/>
<path d="M212.833 240.783H189.2V194.192H212.833V240.783ZM208.4 235.35V197.15H192.933V235.35H208.4Z" fill="black"/>
<path d="M172.375 194.208V240.792H148.908V194.208H172.375ZM153.283 197.142V235.333H168.575V197.142H153.283Z" fill="black"/>
</g>
</g>
<defs>
<clipPath id="clip0_40_38">
<rect width="360" height="360" fill="white"/>
</clipPath>
<clipPath id="clip1_40_38">
<rect width="300" height="300" fill="white" transform="translate(30 -7)"/>
</clipPath>
</defs>
</svg>
