<svg width="360" height="370" viewBox="0 0 360 370" fill="none" xmlns="http://www.w3.org/2000/svg">
<g clip-path="url(#clip0_39_24)">
<path d="M180 1C261.788 1 328 65.5841 328 145.144C328 184.783 308.124 218.79 279.353 252.544C264.974 269.413 248.433 286.151 231.132 303.461C214.338 320.264 196.831 337.601 179.991 356.039C163.882 338.551 146.761 321.7 130.132 305.104C112.974 287.979 96.3398 271.118 81.7734 254.006C52.6167 219.753 32 184.775 32 145.144C32 65.5841 98.2124 1 180 1Z" fill="#E0E1D8" stroke="#1C3EB9" stroke-width="4"/>
<g clip-path="url(#clip1_39_24)">
<path d="M99.3333 77.0675H106.825C107.358 74.0386 107.767 71.1145 108.392 68.2386C111.383 54.5764 118.525 43.1858 129.083 33.7931C139.958 24.1183 152.767 18.0122 167.325 15.6842C191.017 11.8981 212.417 17.1986 230.9 32.1175C243.658 42.4206 251.617 55.6558 254.517 71.5897C254.833 73.3458 255.092 75.1181 255.4 77.0111H263.267C262.717 79.5889 262.2 82.0056 261.675 84.4142C261.567 84.9217 261.333 85.4211 261.342 85.9206C261.383 88.4742 259.917 89.8597 257.55 90.48C255.708 90.9633 255.425 92.22 255.425 93.7989C255.433 103.796 255.4 113.793 255.4 123.79C255.392 167.499 255.392 211.209 255.383 254.918C255.383 255.385 255.383 255.844 255.383 256.4H106.992C106.992 255.756 106.992 255.2 106.992 254.644C106.992 201.88 106.992 149.116 106.992 96.3525C106.992 96.0706 106.992 95.7886 106.992 95.5067C106.992 91.4306 106.975 91.4467 103.167 89.602C102.667 89.3603 102.058 88.8931 101.95 88.4258C101.033 84.7364 100.233 81.0228 99.3333 77.0595V77.0675ZM110.642 89.5295V253.178H251.817V89.465H248.733C249.967 92.4778 249.15 94.8542 246.408 96.5942C249.567 99.4217 249.533 101.943 246.383 104.754C248.225 106.503 248.233 107.091 246.583 109.032C246.35 109.306 246.358 109.805 246.317 110.2C246.017 113.543 244.375 116.282 242.3 119.061C240.225 116.048 238.425 113.181 238.467 109.596C238.467 109.378 238.433 109.121 238.317 108.951C236.808 106.897 236.808 106.793 238.317 104.795C235.325 102.612 235.067 99.2847 237.967 96.8197C237.208 95.6597 236.183 94.6206 235.808 93.3881C235.442 92.1797 235.725 90.7942 235.725 89.4247C234.983 89.3522 234.083 89.2636 233.183 89.1831V77.14H251.517C251.517 76.6003 251.558 76.2297 251.517 75.8672C250.842 70.76 249.483 65.8381 247.583 61.0289C237.6 35.807 211.858 19.5508 185.042 18.1572C171.633 17.4645 158.858 19.9536 147.025 26.1483C129.55 35.2914 117.525 48.8167 112.433 67.6425C111.608 70.7117 111.175 73.8775 110.533 77.1722H129.133V89.3603H126.508C126.508 90.77 126.808 92.1556 126.425 93.3317C126.025 94.5481 124.958 95.555 124.158 96.6828C127.167 99.47 127.158 101.782 123.992 104.754C125.567 106.639 125.55 107.05 124.058 108.968C123.8 109.298 123.783 109.829 123.733 110.281C123.417 113.559 121.85 116.298 119.825 119.029C117.742 116.089 115.933 113.277 116 109.725C116 109.403 115.683 109.008 115.408 108.75C114.383 107.799 114.283 106.712 115.208 105.633C115.467 105.326 115.758 105.053 116.083 104.722C114.333 103.828 113.65 102.459 113.583 100.735C113.517 99.0028 114.5 97.7622 115.725 96.6667C113.142 94.7897 112.2 92.4939 113.425 89.5375H110.642V89.5295ZM235.25 86.5247H258.592C259.067 84.6156 259.542 82.7064 260.033 80.765H235.25V86.5247ZM127.208 80.757H102.508C102.975 82.4245 103.45 83.947 103.825 85.4936C104.05 86.412 104.55 86.6133 105.475 86.6133C112.25 86.5731 119.033 86.5972 125.808 86.6053C126.275 86.6053 126.733 86.6053 127.208 86.6053V80.765V80.757ZM244.267 91.6239C244.133 90.6411 243.617 89.9725 242.492 90.0047C241.408 90.0289 240.75 90.617 240.758 91.6883C240.758 92.7517 241.442 93.3639 242.508 93.3558C243.567 93.3478 244.2 92.7436 244.267 91.632V91.6239ZM121.65 91.6481C121.575 90.6492 121.042 90.0128 119.933 90.0047C118.842 89.9967 118.175 90.6008 118.175 91.632C118.175 92.647 118.85 93.3317 119.9 93.3478C120.942 93.3639 121.592 92.7678 121.642 91.6481H121.65ZM242.467 101.323C243.517 101.162 244.258 100.662 244.225 99.5828C244.192 98.5195 243.458 97.9314 242.4 97.9878C241.442 98.0361 240.742 98.5758 240.742 99.607C240.742 100.703 241.442 101.186 242.467 101.323ZM121.642 99.607C121.642 98.5356 120.95 98.0281 120 98.012C118.95 97.9959 118.233 98.6242 118.25 99.6795C118.258 100.646 118.883 101.307 119.9 101.283C120.925 101.258 121.617 100.703 121.642 99.615V99.607ZM244.008 105.584C243.442 105.109 243.075 104.561 242.717 104.561C242.35 104.561 241.65 105.165 241.692 105.391C241.775 105.826 242.225 106.366 242.65 106.511C242.9 106.599 243.4 106.019 244.008 105.576V105.584ZM243.983 108.798C243.383 108.379 242.95 107.856 242.608 107.904C242.25 107.961 241.975 108.557 241.658 108.927C242.042 109.217 242.392 109.676 242.808 109.741C243.083 109.781 243.45 109.249 243.975 108.806L243.983 108.798ZM120.108 104.07C119.617 104.73 119.092 105.117 119.108 105.496C119.117 105.834 119.708 106.156 120.042 106.486C120.375 106.172 120.942 105.874 120.975 105.528C121.008 105.157 120.533 104.746 120.108 104.078V104.07ZM121.458 108.782C120.833 108.347 120.383 107.832 120.108 107.904C119.75 108.001 119.283 108.573 119.3 108.927C119.317 109.233 119.9 109.668 120.292 109.749C120.525 109.797 120.892 109.274 121.458 108.782Z" fill="#1C3EB9"/>
<path d="M230.875 251.712C229.542 250.721 228.433 249.714 227.15 248.997C226.15 248.441 224.925 247.934 223.808 247.934C195.517 247.878 167.225 247.878 138.933 247.958C137.733 247.958 136.458 248.619 135.367 249.231C134.05 249.964 132.892 250.971 131.508 251.978C131.508 243.117 131.508 234.546 131.508 225.966C131.508 177.254 131.542 128.551 131.508 79.8386C131.508 73.4103 132.292 67.1511 134.933 61.2303C140.833 48.0111 151.142 39.2869 165.242 35.1786C184.675 29.5156 202.258 33.2936 217.233 46.6497C224.833 53.4325 229.317 62.0358 230.492 72.0731C230.825 74.9247 231.042 77.8006 231.042 80.6683C231.025 125.933 230.967 171.205 230.917 216.469C230.908 227.126 230.892 237.784 230.875 248.441C230.875 249.432 230.875 250.415 230.875 251.712ZM228.708 245.622V72.5322H136.642V245.622H228.708ZM213.075 50.1136C204.233 43.2019 194.417 39.3675 183.092 39.0372V62.2453C186.5 62.5514 189.575 63.5906 192.208 65.7494C199.15 60.5536 206.017 55.3981 213.075 50.1136ZM180.875 39.0292C169.692 39.5689 160.083 43.3389 151.692 50.4197C158.425 55.4544 165.017 60.3603 171.583 65.3145C172.308 65.8622 172.717 65.4917 173.225 65.1211C175.125 63.7356 177.233 62.8575 179.6 62.5192C180.058 62.4547 180.5 62.2695 180.892 62.1486V39.0292H180.875ZM193.817 67.0142C194.333 67.8439 194.892 68.5286 195.2 69.3019C195.592 70.3089 196.225 70.5425 197.283 70.5344C206.633 70.4861 215.992 70.5022 225.342 70.5022C225.85 70.5022 226.35 70.5022 226.9 70.5022C225.383 64.3236 219.133 54.7939 214.5 51.5636C207.658 56.6789 200.775 61.8183 193.808 67.0142H193.817ZM170.758 67.135C163.85 61.9875 157.008 56.8803 150.083 51.7086C144.483 56.9769 140.533 63.0992 138.408 70.5022C139.15 70.5022 139.633 70.5022 140.117 70.5022C148.933 70.5022 157.75 70.4619 166.575 70.5425C168.15 70.5586 169.267 70.3492 169.75 68.73C169.908 68.2064 170.35 67.7714 170.758 67.135ZM172.65 70.4136H191.767C189.258 66.7403 185.883 64.7667 181.533 64.9036C177.683 65.0244 174.8 67.0222 172.65 70.4136Z" fill="black"/>
<path d="M243.867 195.694C243.833 204.885 245.3 213.859 247.95 222.672C243.942 214.052 242.633 205.054 243.867 195.694Z" fill="black"/>
<path d="M114.692 179.977C116.942 171.889 118.608 163.737 117.925 155.303C119.6 163.858 118.275 172.059 114.692 179.977Z" fill="black"/>
<path d="M238.183 159.041C240.042 152.556 240.642 145.959 240.533 139.281C241.517 146.071 241.308 152.733 238.183 159.041Z" fill="black"/>
<path d="M142.492 39.2064C137.408 42.2756 132.642 45.6025 129.9 50.9836C131.992 44.95 136.717 41.5344 142.492 39.2064Z" fill="black"/>
<path d="M123.208 242.013C123.508 234.916 123.817 227.771 124.108 220.851C124.742 224.621 124.25 236.704 123.208 242.013Z" fill="black"/>
<path d="M231.075 53.3439C227.758 49.4611 225.425 44.95 224.017 40.0603C226.367 44.4828 228.742 48.9536 231.075 53.3439Z" fill="black"/>
<path d="M227.583 242.77H138.783V74.5139H227.583V242.77ZM218.392 149.898V97.585C217.05 97.585 215.783 97.5125 214.533 97.6011C213.267 97.6897 212.367 97.3111 211.5 96.3767C206.942 91.4708 201.417 87.8297 195.125 85.3325C192.508 84.2933 189.742 83.5844 186.875 82.6742V149.89H218.383L218.392 149.898ZM146.558 97.5528V149.89H174.517V81.7478C174.25 81.788 174.1 81.78 173.975 81.8364C165.95 85.1311 159.067 89.9403 153.433 96.3767C152.75 97.158 152.05 97.6092 150.958 97.5689C149.508 97.5125 148.05 97.5528 146.558 97.5528ZM218.45 174.411H186.658V227.916H218.45V174.411ZM174.508 227.948V174.395H146.542V227.948H174.508ZM218.283 159.146C218.75 160.765 219.683 162.005 221.392 162.4C223.425 162.875 225.433 161.651 226.05 159.693C226.733 157.542 225.783 155.343 223.808 154.441C221.9 153.571 219.742 154.208 218.7 156.109C218.275 156.882 217.783 157.027 216.992 157.019C214.942 156.995 212.892 156.962 210.85 157.075C209.6 157.148 208.208 157.156 207.233 158.727C210.925 160.531 214.617 158.63 218.283 159.154V159.146ZM219.525 145.242C220 146.547 220.25 147.755 220.85 148.778C221.592 150.027 223.025 150.027 224.042 148.988C225.658 147.32 225.667 143.308 224.058 141.649C223.092 140.65 221.875 140.553 221.092 141.697C220.375 142.736 220.042 144.025 219.525 145.25V145.242Z" fill="#1C3EB9"/>
<path d="M189.05 147.578V85.3969C192.25 86.7181 195.308 87.7814 198.167 89.2072C203.1 91.6561 207.417 94.9267 210.942 99.1236C211.25 99.4861 211.917 99.6956 212.433 99.7358C213.592 99.8245 214.758 99.76 216.058 99.76V147.578H189.05Z" fill="black"/>
<path d="M172.392 147.61H148.833V99.8245C149.958 99.8245 151.1 99.7842 152.242 99.8406C153.15 99.8808 153.717 99.5747 154.292 98.8497C158.975 92.9611 164.867 88.5064 171.75 85.2358C171.917 85.1553 172.117 85.1472 172.383 85.0908V147.618L172.392 147.61Z" fill="black"/>
<path d="M188.875 225.668V176.634H216.158V225.668H188.875Z" fill="black"/>
<path d="M148.85 176.602H172.333V225.709H148.85V176.602Z" fill="black"/>
<path d="M224.392 145.91C223.55 146.603 223.05 147.022 222.55 147.433C222.142 146.901 221.517 146.418 221.375 145.83C221.192 145.064 221.642 144.219 222.592 144.372C223.133 144.46 223.575 145.177 224.392 145.91Z" fill="black"/>
</g>
</g>
<defs>
<clipPath id="clip0_39_24">
<rect width="360" height="370" fill="white"/>
</clipPath>
<clipPath id="clip1_39_24">
<rect width="360" height="348" fill="white"/>
</clipPath>
</defs>
</svg>
