<svg width="360" height="370" viewBox="0 0 360 370" fill="none" xmlns="http://www.w3.org/2000/svg">
<g clip-path="url(#clip0_40_149)">
<path d="M180 3C261.701 3 328 70.5565 328 153.975C328 195.406 299.861 237.743 266.826 274.446C250.357 292.744 232.77 309.537 217.06 324.003C202.218 337.669 188.964 349.339 180.029 358.151C170.854 348.739 157.455 336.754 142.522 322.932C126.76 308.341 109.204 291.626 92.7959 273.486C59.8871 237.103 32 195.404 32 153.975C32 70.5565 98.2987 3 180 3Z" fill="#E0E1D8" stroke="#7B1D1D" stroke-width="4"/>
<path d="M227.417 264.175H132.733V98.2333C132.042 98.9167 131.325 99.575 130.667 100.292C130.408 100.575 130.158 100.975 130.125 101.342C130.05 102.258 130.033 103.2 130.108 104.117C130.217 105.525 129.858 106.625 128.508 107.15C130.242 111.317 131.408 115.458 129.258 119.8C129.017 120.275 128.842 120.85 128.458 121.183C126.975 122.45 127.017 124.1 127.017 125.825C127.05 170.067 127.075 214.308 127.058 258.55C127.058 260.133 127.267 261.275 128.767 262.308C130.95 263.817 132.458 265.983 131.783 268.9C131.517 270.058 130.967 271.15 130.458 272.233C130.367 272.425 129.858 272.5 129.55 272.5C120.133 272.517 110.725 272.517 101.308 272.508C101.217 272.508 101.133 272.45 100.85 272.35C101.2 271.858 101.417 271.217 101.85 270.983C103.05 270.35 103.175 269.375 103.108 268.208C102.933 265.308 104.2 263.133 106.442 261.658C106.333 260.258 106.108 258.967 106.183 257.692C106.225 257 106.633 256.092 107.175 255.733C108.008 255.183 108.158 254.592 108.158 253.708C108.142 210.592 108.158 167.467 108.117 124.35C108.117 123.567 107.8 122.608 107.292 122.025C104.083 118.342 103.267 111.767 107.2 107.725C107.567 107.342 107.633 106.558 107.65 105.958C107.708 104.258 107.667 102.558 107.667 100.792C105.2 100.258 103.592 99.025 103.283 96.4833C103.233 96.1083 102.7 95.8167 102.558 95.4333C102.017 93.9667 101.542 92.475 101.042 91C101.158 90.9333 101.283 90.8583 101.4 90.7917C100.6 90.6583 99.7916 90.55 99 90.3833C96.85 89.9333 95.5416 88.4083 95.4833 86.5C95.45 85.3333 96.0333 85.1083 97.0166 85.125C99.8833 85.15 102.75 85.1333 105.658 85.1333C106.017 81.7333 106.267 78.6833 106.667 75.6583C109.183 56.5583 117.125 40.2583 131.675 27.3833C141.2 18.95 152.158 13.2 164.6 10.6417C185.983 6.25 205.742 10.275 223.417 23.25C238.892 34.6083 248.592 49.8583 252.6 68.6167C253.725 73.8833 254.25 79.275 255.092 84.9083C255.5 84.9083 256.208 84.8917 256.908 84.9083C259.008 84.9667 261.1 85.075 263.192 85.0917C264.45 85.1 264.842 85.7333 264.683 86.8583C264.458 88.45 263.542 89.5417 262.058 90.075C261.067 90.4333 260.008 90.6 258.925 90.8667C258.825 91.825 258.958 92.9833 258.542 93.9C257.692 95.8 256.667 97.65 255.467 99.35C254.942 100.1 253.825 100.442 252.9 101.008C252.775 102.817 252.617 104.792 252.533 106.767C252.525 107.033 252.842 107.358 253.067 107.592C257.283 112.092 256.3 118.083 252.775 122.158C252.258 122.758 252.083 123.817 252.083 124.667C252.058 164.225 252.067 203.783 252.083 243.342C252.083 246.85 252.075 250.367 252.058 253.875C252.058 254.617 252.042 255.225 252.942 255.633C253.425 255.85 253.875 256.683 253.908 257.267C253.992 258.683 253.817 260.117 253.742 261.775C256.233 263.317 257.517 265.817 257.133 269.108C257.042 269.892 257.333 270.3 258.033 270.683C258.617 271 259.008 271.65 259.725 272.408H230.017C229.617 271.142 229 269.808 228.792 268.425C228.392 265.758 230.042 263.875 231.8 262.258C232.842 261.3 233.042 260.317 233.042 259.058C233.017 239.4 233.008 219.742 233.008 200.083C233.008 175.058 233.008 150.033 233.033 125.017C233.033 123.608 232.783 122.442 231.892 121.258C229.408 117.942 228.867 114.283 230.533 110.383C230.975 109.358 231.292 108.275 231.7 107.117C230.267 106.525 229.642 105.183 229.942 103.567C230.383 101.2 229.217 99.7 227.392 98.3833V264.158L227.417 264.175ZM244.592 84.8C244.467 83.15 244.433 81.6417 244.225 80.1583C243.8 77.125 243.408 74.0833 242.792 71.0833C235.842 37.2583 203.9 14.425 170.367 19.8333C155.317 22.2583 142.758 29.2333 132.717 40.6667C122.908 51.8417 117.9 65.075 116.375 79.7417C116.2 81.4083 116.158 83.0917 116.058 84.7833H125.292C127.433 54.3417 150.142 33.8083 175.883 31.9C188.875 30.9333 200.833 34.05 211.433 41.7083C226.092 52.3 233.817 66.8417 235.392 84.8083H244.6L244.592 84.8ZM113.658 84.8C113.692 84.5333 113.733 84.35 113.75 84.1583C114.217 76.95 115.325 69.875 117.533 62.9667C128.092 29.9333 161.367 10.6167 194.95 18.4667C222.217 24.8333 243.117 47.8583 246.292 78.025C246.533 80.2833 246.725 82.5417 246.942 84.75H252.642C252.183 81.0417 251.842 77.4583 251.283 73.9083C249.017 59.425 243.408 46.4083 233.483 35.5583C215.342 15.7167 192.8 7.69167 166.383 12.7333C143.525 17.1 127.008 30.55 116.333 51.15C112.125 59.2667 109.992 68.05 108.783 77.0583C108.442 79.5917 108.333 82.1583 108.108 84.8H113.667H113.658ZM132.483 84.8167C134.217 72.7833 139.675 62.825 148.867 54.9917C158.075 47.1417 168.858 43.5 180.892 43.5917C191.233 43.675 200.633 46.8 208.9 53.0167C219.5 60.9917 225.875 71.575 227.808 84.75H233.017C230.792 53.9167 204.2 30.2167 172.933 34.55C143.925 38.575 128.15 64.225 127.933 84.8083H132.483V84.8167ZM235.225 255.608C235.625 255.508 235.958 255.458 236.275 255.358C240.433 253.992 242.467 250.75 242.992 246.758C243.558 242.442 243.7 238.033 243.675 233.667C243.525 207.433 243.283 181.2 243.058 154.967C242.992 147.117 242.892 139.267 242.792 131.417C242.767 129.617 242.492 127.767 240.817 126.792C239.083 125.783 237.15 125.133 235.225 124.292V255.617V255.608ZM124.783 124.517C123.817 124.867 122.925 125.217 122.017 125.517C118.283 126.758 117.525 127.717 117.475 131.625C117.317 144.942 117.2 158.258 117.058 171.575C116.825 194.3 116.558 217.033 116.4 239.758C116.383 242.408 116.717 245.117 117.292 247.717C118.175 251.683 120.525 254.483 124.783 255.483V124.517ZM249.808 124.592C245.858 125.742 244.8 127.1 244.842 130.958C244.883 135.2 245.008 139.442 245.042 143.683C245.267 169.233 245.492 194.783 245.683 220.325C245.742 228.075 245.792 235.825 245.667 243.575C245.608 247 244.817 250.333 242.742 253.208C242.283 253.842 241.733 254.417 241.208 255.025H249.8V124.592H249.808ZM119.067 255.033C118.483 254.4 118 253.933 117.592 253.425C115.125 250.342 114.342 246.667 114.325 242.883C114.283 233.808 114.425 224.742 114.508 215.667C114.7 195.575 114.892 175.475 115.092 155.383C115.175 147.192 115.275 138.992 115.358 130.8C115.4 127.083 113.942 125.267 110.483 124.725V255.042H119.058L119.067 255.033ZM189.133 111.467V180.483C189.567 180.483 189.858 180.483 190.15 180.483C198.392 180.483 206.625 180.467 214.867 180.475C216.95 180.475 216.95 180.5 216.95 178.467C216.958 156.867 216.967 135.275 216.975 113.675C216.975 111.608 216.883 111.492 214.733 111.483C210.592 111.458 206.45 111.475 202.3 111.475C197.967 111.475 193.633 111.475 189.133 111.475V111.467ZM171.008 180.383V111.467C168.158 111.467 165.4 111.467 162.633 111.467C156.783 111.467 150.933 111.483 145.075 111.467C143.958 111.467 143.125 111.667 143.292 113.067C143.342 113.45 143.292 113.85 143.292 114.233C143.283 135.742 143.275 157.242 143.267 178.75C143.267 179.275 143.267 179.792 143.267 180.383H171.008ZM216.85 193.733H189.125V251.3H216.85V193.733ZM243.517 125.883C244.683 125.058 245.983 124.1 247.317 123.208C247.917 122.808 248.633 122.575 249.25 122.2C252.667 120.125 254.375 115.833 253.358 112.117C253.1 111.167 252.725 110.8 251.683 110.817C246.375 110.883 241.075 110.85 235.767 110.858C232.142 110.858 231.792 111.208 231.858 114.883C231.875 115.6 231.983 116.342 232.175 117.033C233.05 120.133 235.183 122.008 238.075 123.233C239.967 124.033 241.775 125.033 243.508 125.892L243.517 125.883ZM116.308 125.95C118.183 125.058 119.967 123.958 121.908 123.333C127.308 121.583 128.825 116.683 128.067 112.5C127.85 111.3 127.375 110.792 126.067 110.808C120.558 110.883 115.042 110.833 109.533 110.85C107.25 110.85 107.017 111.083 106.717 113.342C106.692 113.533 106.683 113.733 106.683 113.925C106.742 117.967 108.333 121.075 112.108 122.842C113.833 123.65 115.608 124.383 116.3 125.958L116.308 125.95ZM143.408 193.708V251.275H171V193.708H143.408ZM217.175 96.3917C219.875 80.475 203.358 57.35 189.092 56.9667V96.3917H217.175ZM171 96.4083V56.9C153.225 60.7417 141.708 80.05 143.2 96.4083H171ZM138.842 204.617C139.217 199.208 139.583 193.9 139.975 188.342C140.142 189.108 140.258 189.642 140.375 190.175C142.392 189.808 143.833 188.033 143.933 185.817C144.042 183.417 142.583 181.4 140.325 180.8C138.242 180.25 135.942 181.292 134.892 183.25C133.817 185.258 134.35 187.933 136.108 189.425C136.217 189.242 136.333 189.067 136.492 188.808C137.017 194.192 137.533 199.408 138.042 204.592C136.4 205.192 135.583 206.45 135.842 207.825C136.117 209.325 137.383 210.375 138.825 210.3C140.233 210.225 141.342 209.317 141.533 208.075C141.8 206.375 140.975 205.267 138.85 204.617H138.842ZM225.625 90.7833C225.367 93.8417 225.933 94.5 228.733 94.5C236.925 94.5 245.117 94.4917 253.317 94.4833C254 94.4833 254.708 94.55 255.35 94.3917C255.792 94.2833 256.383 93.8917 256.492 93.5167C256.733 92.6583 256.708 91.7333 256.792 90.7917H225.625V90.7833ZM134.542 90.775H103.683C103.325 93.5 103.833 94.475 105.65 94.4833C114.567 94.5 123.483 94.4833 132.392 94.5167C133.458 94.5167 134.042 94.05 134.225 93.05C134.358 92.3417 134.425 91.625 134.533 90.775H134.542ZM105.375 270.15C106 270.15 106.533 270.15 107.067 270.15C113.742 270.158 120.417 270.183 127.083 270.175C129.775 270.175 129.45 270.542 129.583 267.642C129.642 266.292 129.183 265.933 127.858 265.942C120.892 266.008 113.925 265.983 106.958 265.983C106.483 265.983 106 265.983 105.375 265.983V270.15ZM254.867 265.983C247.325 265.983 240.075 266.017 232.817 265.95C231.4 265.933 230.842 266.367 231.067 267.758C231.1 267.95 231.092 268.15 231.067 268.342C230.9 269.7 231.408 270.2 232.858 270.183C239.583 270.117 246.3 270.158 253.025 270.158C253.683 270.158 254.333 270.092 255.117 270.05C255.025 268.617 254.95 267.367 254.867 265.975V265.983ZM250.625 100.725H232.35V104.883H250.625V100.725ZM109.942 104.95H127.842V100.7H109.942V104.95ZM251.617 260.108C252.133 257.283 252.092 257.225 249.483 257.225C246.908 257.225 244.333 257.225 241.758 257.225C239.633 257.225 237.508 257.225 235.308 257.225V260.108H251.617ZM124.75 257.242C119.533 257.242 114.433 257.225 109.333 257.283C109.017 257.283 108.525 257.867 108.442 258.25C108.317 258.825 108.475 259.458 108.517 260.092H124.75V257.242ZM221.725 87.2583C221.992 88.5833 222.983 88.425 223.8 88.425C230.717 88.45 237.633 88.4583 244.542 88.45C249.608 88.45 254.675 88.45 259.733 88.3583C260.533 88.3417 261.325 87.925 262.117 87.6833C262.075 87.5417 262.025 87.3917 261.983 87.25H221.717L221.725 87.2583ZM98.0666 87.225C99.1416 88.55 100.417 88.4083 101.583 88.4083C109.575 88.4417 117.567 88.4417 125.558 88.45C129.167 88.45 132.767 88.4417 136.375 88.4167C137.125 88.4167 137.975 88.4417 137.967 87.225H98.075H98.0666ZM229.3 96.6333C229.733 97.9917 230.517 98.3667 231.7 98.35C235.35 98.3083 239 98.35 242.65 98.3667C245.767 98.3833 248.883 98.4 252 98.4333C253.283 98.45 254.217 98.0583 254.483 96.6333H229.3ZM130.683 96.65H105.783C106.275 97.875 107.025 98.4583 108.25 98.45C115.117 98.4083 121.992 98.3667 128.858 98.35C130.017 98.35 130.5 97.7583 130.692 96.65H130.683ZM252.667 263.758C252.708 263.617 252.75 263.475 252.792 263.333C251.975 263.033 251.167 262.483 250.35 262.467C245.575 262.392 240.8 262.408 236.025 262.5C235.233 262.517 234.458 263.1 233.675 263.417C233.725 263.525 233.775 263.642 233.825 263.75H252.667V263.758ZM107.442 263.308C107.492 263.458 107.542 263.608 107.592 263.767H126.75C126.783 263.608 126.817 263.45 126.85 263.292C125.875 263.017 124.908 262.533 123.933 262.508C119.358 262.408 114.775 262.383 110.192 262.45C109.267 262.467 108.358 263.008 107.442 263.317V263.308ZM250.892 108.5C250.775 107.367 250.225 107.042 249.217 107.05C244.592 107.092 239.967 107.1 235.342 107.05C234.275 107.042 233.817 107.408 233.85 108.5H250.892ZM126.208 108.475C126.375 107.4 125.983 107.033 124.942 107.042C120.317 107.083 115.683 107.083 111.058 107.05C110.017 107.05 109.592 107.483 109.517 108.475H126.208Z" fill="#7B1D1D"/>
<path d="M190.3 179.133V113.492H215.708V179.133H190.3ZM190.792 178.558H215.175V113.942H190.792V178.558Z" fill="black"/>
<path d="M169.817 179.183H144.55V113.508H169.817V179.183ZM145.025 113.95V178.617H169.233V113.95H145.025Z" fill="black"/>
<path d="M190.325 195.467H215.658V249.917H190.325V195.467ZM190.8 195.925V249.35H215.133V195.925H190.8Z" fill="black"/>
<path d="M235.608 117.2V115.283H249.225V117.2H235.608Z" fill="black"/>
<path d="M111.142 117.183V115.292H124.4V117.183H111.142Z" fill="black"/>
<path d="M169.833 195.5V249.85H144.508V195.5H169.833ZM144.983 249.375H169.233V195.925H144.983V249.375Z" fill="black"/>
<path d="M190.4 58.8917C206.875 63.275 216.758 80.4 215.742 95.4417H190.4V58.8917ZM215.208 95C215.958 79.725 205.858 63.6333 190.867 59.7083V95H215.208Z" fill="black"/>
<path d="M169.792 58.875V95.375H144.55C141.983 81.625 155.758 61.65 169.792 58.875ZM145.075 94.925H169.25V59.7167C154.983 63.6583 144.283 79.225 145.075 94.925Z" fill="black"/>
<path d="M193.417 116.442H212.825V176.317H193.417V116.442Z" fill="black"/>
<path d="M166.867 176.35H147.608V116.325H166.867V176.35Z" fill="black"/>
<path d="M193.392 198.375H212.817V246.892H193.392V198.375Z" fill="black"/>
<path d="M166.933 246.958H147.625V198.375H166.933V246.958Z" fill="black"/>
<path d="M212.842 92.6417H193.375V62.1C202.092 65.1167 211.983 77.5083 212.842 92.6417Z" fill="black"/>
<path d="M167.167 61.7833V92.6H147.642C147.9 80.2417 156.025 66.4167 167.167 61.7833Z" fill="black"/>
</g>
<defs>
<clipPath id="clip0_40_149">
<rect width="360" height="360" fill="white"/>
</clipPath>
</defs>
</svg>
