<svg width="360" height="370" viewBox="0 0 360 370" fill="none" xmlns="http://www.w3.org/2000/svg">
<path d="M180 7C261.706 7 328 74.3844 328 157.579C328 198.913 301.592 239.24 269.462 274.354C238.03 308.705 201.654 337.538 180.04 357.252C169.61 347.165 155.481 335.025 140.177 321.351C124.159 307.038 106.779 290.974 90.7197 273.584C58.5231 238.719 32.0001 198.904 32 157.579C32 74.3844 98.2939 7 180 7Z" fill="#E0E1D8" stroke="#E0E0E0" stroke-width="4"/>
<path d="M140.593 262.009C140.593 261.325 140.593 260.718 140.593 260.111C140.603 235.874 140.632 211.627 140.593 187.389C140.593 185.742 140.874 184.374 142.203 183.401C144.793 181.503 145.637 178.999 145.133 175.916C145.036 175.309 145.045 174.664 145.133 174.057C145.705 170.175 144.812 166.89 141.505 164.414C140.991 164.028 140.671 163.065 140.671 162.362C140.622 143.981 140.36 125.601 140.719 107.23C140.981 93.6955 147.15 82.752 158.024 74.6985C178.598 59.449 209.541 64.9014 222.81 88.7247C226.331 95.0538 228.097 101.845 228.097 109.07C228.097 152.642 228.077 196.223 228.068 239.795C228.068 246.499 228.048 253.214 228.038 259.919C228.038 260.583 228.038 261.238 228.038 261.999H140.593V262.009ZM150.303 116.96V188.497H178.733V116.96H150.303ZM218.358 188.574V116.97H190.189V188.574H218.358ZM175.348 105.333C176.987 97.886 179.325 95.0923 184.224 95.3331C185.979 95.4198 187.9 96.1134 189.365 97.096C192.178 98.9842 193.021 102.067 193.157 105.313H219.619C218.144 93.4065 212.063 84.592 201.839 78.9661C189.132 71.9819 176.231 72.4732 164.067 80.4496C155.221 86.2489 150.118 94.5817 149.042 105.333H175.338H175.348ZM178.695 254.216V201.242H150.264V254.216H178.695ZM190.131 254.187H218.348V201.261H190.131V254.187Z" fill="white"/>
<path d="M272.979 104.379C274.046 104.379 275.006 104.369 275.956 104.379C277.557 104.398 278.692 105.217 278.546 106.392C278.381 107.722 277.596 108.521 276.131 108.463C275.908 108.463 275.685 108.492 275.355 108.521C274.628 114.802 270.874 118.896 265.48 121.719C264.316 122.335 263.977 123.077 263.977 124.378C264.016 164.462 264.016 204.556 263.977 244.64C263.977 246.018 264.52 246.644 265.607 247.212C270.001 249.505 273.337 252.8 274.589 257.674C275.18 259.976 275.18 262.433 275.471 265.005C274.598 265.063 274.055 265.13 273.522 265.13C262.677 265.14 251.833 265.159 240.988 265.13C239.999 265.13 238.873 265.034 238.068 264.562C237.418 264.177 237.156 263.146 236.545 262.105H229.649C229.649 261.373 229.649 260.824 229.649 260.275C229.658 210.037 229.464 159.799 229.794 109.562C229.93 89.0811 215.584 69.5736 193.613 65.2675C167.423 60.1329 144.124 76.1339 139.419 101.306C138.934 103.888 138.847 106.575 138.837 109.215C138.779 126.979 138.798 144.733 138.74 162.497C138.74 163.836 139.002 164.934 140.079 165.753C142.514 167.593 143.425 170.001 142.96 172.978C142.902 173.363 142.902 173.777 142.96 174.163C143.542 178.006 142.562 181.234 139.38 183.709C138.983 184.018 138.74 184.769 138.74 185.318C138.74 207.359 138.76 229.41 138.779 251.451C138.779 254.929 138.779 258.416 138.779 261.999H132.067C130.98 264.938 130.699 265.14 127.614 265.15C116.828 265.15 106.042 265.15 95.2552 265.15C94.809 265.15 94.3531 265.111 93.9166 265.092C92.7041 258.397 95.1873 251.759 101.269 248.272C103.946 246.74 104.587 245.064 104.587 242.174C104.48 202.986 104.509 163.797 104.557 124.618C104.557 123.125 104.131 122.326 102.792 121.603C97.8548 118.944 94.1785 115.255 93.2667 109.427C93.2085 109.07 92.5877 108.637 92.1512 108.521C90.8902 108.184 90.3082 107.365 90.4246 106.18C90.541 104.928 91.4043 104.36 92.675 104.388C93.5771 104.408 94.4792 104.388 95.4589 104.388C95.4201 100.516 95.8566 96.7974 98.3592 93.8207C99.8142 92.0867 101.793 90.7958 103.49 89.2641C103.937 88.8692 104.47 88.3586 104.567 87.8288C107.681 71.3172 115.383 57.2429 127.537 45.6444C139.749 33.9784 154.27 26.7053 171.08 24.1813C195.049 20.5785 216.699 26.1176 235.537 41.2709C250.407 53.2258 259.864 68.6584 263.599 87.4049C263.812 88.4742 264.161 89.1485 265.238 89.6784C270.379 92.1927 273.599 98.3291 272.959 104.388L272.979 104.379ZM268.73 104.282C269.487 99.2443 266.654 94.4661 261.804 92.761C260.504 92.3083 260.116 91.5954 259.913 90.372C259.515 87.9925 259.078 85.6035 258.429 83.2818C247.438 43.9297 207.339 19.5573 165.667 29.4219C136.412 36.3482 112.89 60.7013 108.564 90.1119C108.34 91.6532 107.72 92.3661 106.255 92.8959C101.57 94.5914 98.9121 99.4851 99.9209 104.302H131.32C134.715 76.2399 156.074 58.8613 179.597 57.0599C192.498 56.0773 204.487 58.9962 215.089 66.568C228.087 75.8642 235.255 88.5994 237.127 104.273H268.72L268.73 104.282ZM271.087 261.229C270.699 257.221 268.769 254.379 265.694 252.26C264.54 251.461 263.279 250.805 262.037 250.131C260.514 249.312 259.806 248.204 259.816 246.355C259.874 205.201 259.893 164.048 259.845 122.894C259.845 120.842 260.689 119.638 262.309 118.684C263.812 117.788 265.354 116.931 266.751 115.891C269.196 114.07 270.699 111.633 271.155 108.512H237.409V261.229H271.087ZM97.3407 108.492C97.9033 111.874 99.6105 114.32 102.162 116.18C103.52 117.172 105.023 117.991 106.488 118.848C108.088 119.783 108.864 121.054 108.796 122.99C108.67 126.709 108.719 130.437 108.719 134.155C108.719 171.485 108.699 208.814 108.758 246.143C108.758 248.195 108.04 249.409 106.284 250.285C104.975 250.94 103.684 251.682 102.501 252.539C99.6105 254.649 98.1458 257.539 97.8839 261.19H131.145V108.483H97.3407V108.492Z" fill="white"/>
<path d="M152.679 119.33H176.366V186.127H152.679V119.33ZM167.142 157.41C166.589 162.661 164.707 165.03 159.935 165.801C158.528 166.032 157.025 165.618 155.56 165.666C154.988 165.685 154.435 166.138 153.872 166.389C154.163 166.918 154.386 167.506 154.765 167.959C154.988 168.219 155.473 168.267 155.841 168.383C161.021 169.895 167.53 166.504 169.276 161.341C169.741 159.963 170.023 158.537 170.236 157.738C171.439 156.919 172.215 156.399 173.001 155.869C172.341 155.224 171.681 154.578 171.022 153.933C170.692 153.066 170.74 151.939 170.673 150.821C170.614 149.877 170.546 148.894 170.255 148.008C169.499 145.764 167.006 144.261 164.484 144.386C162.078 144.511 160.371 145.889 159.857 148.124C159.304 150.523 161.312 152.709 163.621 152.102C164.135 151.968 164.736 151.216 164.853 150.657C165.221 148.789 163.378 149.357 162.505 148.885C162.641 147.527 163.553 147.247 164.562 147.218C165.842 147.18 167.103 147.642 167.413 148.904C167.772 150.33 167.695 151.871 167.704 153.374C167.704 153.615 167.268 154.01 166.967 154.077C165.968 154.299 164.455 154.048 164.639 155.541C164.717 156.187 166.084 156.678 167.132 157.42L167.142 157.41Z" fill="black"/>
<path d="M192.556 119.32H216.185V186.166H192.556V119.32ZM197.367 156.832C198.521 159.462 199.317 162.015 200.684 164.202C203.022 167.92 208.939 169.799 212.887 168.412C213.76 168.103 214.672 167.785 214.332 166.562C214.022 165.416 213.13 165.637 212.257 165.734C211.248 165.849 210.22 165.965 209.211 165.926C204.691 165.762 200.607 161.167 201.16 156.909C201.713 156.803 202.295 156.775 202.809 156.563C203.323 156.36 203.759 155.975 204.235 155.676C203.74 155.137 203.342 154.434 202.731 154.116C202.072 153.779 201.228 153.798 200.491 153.673C199.909 149.867 201.034 147.43 203.575 147.122C204.817 146.968 205.855 147.411 205.99 148.596C205.088 149.174 204.206 149.482 203.759 150.108C203.517 150.445 203.915 151.775 204.206 151.842C205.185 152.054 206.359 152.179 207.251 151.833C209.143 151.091 209.492 148.239 208.066 146.438C206.854 144.906 205.253 144.136 203.304 144.405C200.675 144.781 198.725 146.216 197.998 148.779C197.532 150.426 197.542 152.208 197.328 154C196.494 154.588 194.38 153.73 194.603 155.773C194.806 157.632 196.562 156.447 197.338 156.823L197.367 156.832Z" fill="black"/>
<path d="M216.651 102.943H195.427C194.768 99.2924 193.06 96.2579 189.743 94.2735C187.56 92.9633 185.194 92.6358 182.72 92.8863C178.064 93.3583 174.398 97.202 173.243 102.915H151.816C152.65 97.4428 155.036 92.7129 158.557 88.5513C164.785 81.1914 172.836 77.1839 182.468 76.7119C202.304 75.7486 215.235 91.1137 216.651 102.953V102.943Z" fill="black"/>
<path d="M176.337 251.817H152.66V203.66H176.337V251.817Z" fill="black"/>
<path d="M216.146 251.836H192.566V203.621H216.146V251.836Z" fill="black"/>
</svg>
