<svg width="360" height="370" viewBox="0 0 360 370" fill="none" xmlns="http://www.w3.org/2000/svg">
<path d="M180 2C261.685 2 328 70.1276 328 154.286C328 196.127 303.425 235.509 272.258 270.407C241.656 304.673 205.145 334.163 180.027 357.256C155.324 333.614 118.878 304.203 88.1113 270.016C56.8145 235.239 32.0002 196.118 32 154.286C32 70.1276 98.3146 2 180 2Z" fill="#E0E1D8" stroke="#816840" stroke-width="4"/>
<path d="M141.108 112.992H219.267V267.975H141.108V112.992ZM208.95 196.483C209.667 193.892 210.342 191.667 210.875 189.417C211.183 188.133 211.158 186.883 210.167 185.717C209.417 184.833 209.875 183.417 210.875 182.633C211.858 181.858 212.833 181.883 213.775 182.717C214.783 183.6 214.95 185.042 214.375 186.158C213.95 186.975 213.458 187.958 213.558 188.808C213.85 191.342 214.417 193.833 214.9 196.433H216.083V178.167H208.958V196.492L208.95 196.483ZM186.667 121.675C186.492 121.733 186.317 121.792 186.142 121.85V172.358C186.3 172.408 186.458 172.458 186.625 172.508C186.908 171.633 187.433 170.75 187.442 169.875C187.492 154.717 187.5 139.55 187.45 124.392C187.45 123.492 186.942 122.592 186.675 121.692L186.667 121.675ZM211.7 121.633L211.175 121.442C210.883 122.333 210.333 123.225 210.325 124.117C210.275 139.183 210.3 154.25 210.267 169.317C210.267 170.542 210.633 171.425 211.7 172.175V121.633ZM173.967 245.442C174.117 245.383 174.258 245.325 174.408 245.267V198.267C174.242 198.225 174.083 198.192 173.917 198.15C173.65 199.058 173.158 199.967 173.15 200.883C173.1 214.783 173.1 228.692 173.15 242.592C173.15 243.542 173.683 244.492 173.958 245.442H173.967ZM148.933 245.867C149.917 244.917 150.308 244.092 150.308 242.917C150.275 229.117 150.267 215.317 150.308 201.517C150.308 200.275 149.925 199.425 148.925 198.592V245.867H148.933ZM186.183 245.6C186.35 245.633 186.517 245.667 186.692 245.708C186.95 244.7 187.442 243.7 187.442 242.692C187.492 228.892 187.467 215.092 187.508 201.292C187.508 200.075 187.183 199.167 186.183 198.375V245.608V245.6ZM210.35 201.75C210.325 201.983 210.292 202.125 210.292 202.267C210.292 215.858 210.275 229.45 210.333 243.042C210.333 243.858 210.958 244.675 211.292 245.483C211.433 245.425 211.583 245.375 211.725 245.317C211.725 243.967 211.725 242.617 211.725 241.267C211.708 228.65 211.692 216.033 211.692 203.417C211.692 202.5 211.608 201.767 210.358 201.75H210.35ZM174.3 121.642C174.158 121.6 174.017 121.558 173.875 121.517C173.608 122.183 173.108 122.85 173.108 123.517C173.067 139.025 173.058 154.533 173.108 170.042C173.108 170.85 173.617 171.65 173.892 172.458L174.308 172.333V121.642H174.3ZM149.258 121.85C149.092 121.892 148.933 121.933 148.767 121.975V172.458C148.875 172.508 148.983 172.558 149.092 172.608C149.4 171.775 149.975 170.942 149.983 170.108C150.042 154.908 150.05 139.708 150.008 124.508C150.008 123.617 149.525 122.733 149.267 121.842L149.258 121.85ZM186.075 173.283C186.125 173.442 186.175 173.6 186.225 173.75H211.608C211.642 173.625 211.675 173.5 211.708 173.367C210.8 173.042 209.883 172.442 208.975 172.433C202.267 172.367 195.55 172.375 188.833 172.458C187.908 172.467 186.992 172.992 186.067 173.275L186.075 173.283ZM174.317 246.925L174.483 246.35C173.467 246.075 172.45 245.575 171.425 245.567C164.892 245.5 158.358 245.508 151.825 245.6C150.883 245.608 149.942 246.167 149.008 246.467C149.05 246.625 149.1 246.775 149.142 246.933H174.317V246.925ZM186.242 246.342C186.292 246.525 186.333 246.708 186.383 246.892H211.483C211.525 246.725 211.567 246.558 211.608 246.392C210.658 246.108 209.708 245.583 208.75 245.575C202.167 245.508 195.592 245.517 189.008 245.583C188.083 245.592 187.158 246.075 186.233 246.342H186.242ZM174.2 173.817C174.242 173.683 174.283 173.55 174.317 173.417C173.45 173.075 172.583 172.442 171.708 172.425C164.933 172.358 158.167 172.375 151.392 172.467C150.467 172.483 149.55 173.067 148.633 173.383C148.683 173.525 148.742 173.667 148.792 173.817H174.192H174.2ZM149.033 197.333C149 197.483 148.958 197.642 148.925 197.792C149.675 198.025 150.425 198.458 151.175 198.467C158.1 198.517 165.025 198.517 171.95 198.458C172.658 198.458 173.358 197.983 174.067 197.725L173.942 197.333H149.05H149.033ZM173.583 121.275C173.55 121.158 173.517 121.042 173.483 120.933H149.292L149.217 121.342C149.875 121.55 150.533 121.95 151.192 121.95C157.967 121.967 164.75 121.933 171.525 121.867C172.217 121.867 172.9 121.483 173.592 121.283L173.583 121.275ZM186.55 197.283C186.5 197.458 186.442 197.642 186.392 197.817C187.208 198.042 188.017 198.45 188.833 198.45C195.108 198.5 201.383 198.475 207.65 198.467C208.125 198.467 208.6 198.467 209.083 198.467C209.15 198.292 209.208 198.125 209.275 197.95C208.85 197.725 208.425 197.308 207.992 197.308C200.842 197.267 193.7 197.283 186.55 197.283ZM186.842 120.858C186.8 121.008 186.758 121.167 186.717 121.317C187.458 121.525 188.2 121.908 188.95 121.917C195.575 121.95 202.2 121.942 208.825 121.883C209.55 121.883 210.275 121.5 211 121.292C210.967 121.15 210.933 121 210.892 120.858H186.842ZM212.583 190.317C212.4 190.317 212.217 190.333 212.033 190.342C211.05 191.817 210.483 193.442 210.8 195.217C210.883 195.667 211.65 196.2 212.175 196.292C212.45 196.342 213.208 195.517 213.192 195.117C213.108 193.508 212.808 191.917 212.592 190.317H212.583ZM212.375 182.6C211.692 183.442 211.067 183.9 210.9 184.483C210.642 185.433 211.542 185.858 212.208 185.7C212.808 185.558 213.425 184.917 213.708 184.342C213.817 184.117 213.05 183.458 212.367 182.6H212.375ZM210.342 197.4C210.65 198.575 210.867 199.417 211.083 200.258C211.25 200.242 211.425 200.233 211.592 200.217C211.808 199.533 212.025 198.842 212.267 198.092C211.683 197.883 211.242 197.725 210.333 197.4H210.342Z" fill="black"/>
<path d="M248.583 115.325H254.5C254.5 116.725 254.558 118.033 254.458 119.325C254.433 119.675 253.992 120.1 253.633 120.308C252.4 121.033 250.6 121.375 249.992 122.433C249.358 123.525 249.85 125.275 249.85 126.742C249.85 128.792 249.742 130.85 249.883 132.883C249.992 134.392 249.567 135.275 248.033 135.55C247.667 135.617 247.325 135.817 246.575 136.117C246.85 137.767 247.175 139.475 247.417 141.192C247.542 142.058 247.542 142.942 247.542 143.817C247.542 172.842 247.542 201.858 247.542 230.883C247.542 237.958 247.55 245.025 247.508 252.1C247.508 252.792 247.142 253.475 246.942 254.167C246.817 254.158 246.692 254.142 246.567 254.133C248.3 258.808 250.033 263.483 251.808 268.283H220.892V111.592H139.642V268.292H108.592C110.325 263.583 112.017 259 113.75 254.317C112.275 253.525 112.767 252.1 112.767 250.875C112.75 223.808 112.767 196.733 112.767 169.667C112.767 160.692 112.7 151.717 112.708 142.742C112.708 142.075 113.192 141.417 113.242 140.742C113.367 139.208 113.425 137.658 113.342 136.117C113.325 135.825 112.55 135.433 112.075 135.333C110.8 135.075 110.575 134.342 110.608 133.15C110.692 129.933 110.6 126.708 110.642 123.492C110.658 122.433 110.358 121.858 109.3 121.433C105.533 119.917 105.508 119.783 106.008 115.4H111.875C111.875 114.708 111.858 114.142 111.875 113.583C112.108 107.542 112 101.475 112.65 95.475C114 82.9417 118.317 71.3917 125.492 60.9917C137.417 43.7167 153.808 32.65 173.767 26.6333C180.15 24.7083 180.158 24.6667 186.692 26.6333C202.367 31.3667 216.183 39.2333 227.442 51.2333C238.167 62.6667 245 76.0833 247.525 91.6417C248.65 98.5667 248.575 105.525 248.583 112.492C248.583 113.358 248.583 114.233 248.583 115.3V115.325ZM244.933 115.25C244.933 112.9 244.925 110.708 244.933 108.517C244.975 101.933 244.708 95.3583 243.275 88.9083C238.567 67.75 226.942 51.5583 208.242 40.5333C199.65 35.475 190.2 32.4833 180.817 29.3333C180.325 29.1667 179.65 29.3 179.125 29.4833C173.367 31.5333 167.525 33.375 161.9 35.75C144.7 42.9917 131.667 54.8167 123.367 71.6583C116.608 85.3667 115.142 100 115.783 115C115.783 115.075 115.883 115.15 115.942 115.233H130.967C130.967 114.433 130.925 113.708 130.967 112.992C131.158 110.033 131.183 107.042 131.617 104.108C133.5 91.25 139.058 80.15 148.108 70.8417C156.175 62.5417 165.892 56.9 176.808 53.2083C178.883 52.5083 180.767 52.2583 182.95 52.9667C196.65 57.375 208.333 64.7167 217.225 76.1667C225.15 86.3667 229.1 98.0167 229.575 110.875C229.625 112.317 229.575 113.767 229.575 115.242H244.9L244.933 115.25ZM245.017 251.808C245.042 251.342 245.083 251.008 245.083 250.675C245.083 214.892 245.083 179.108 245.108 143.317C245.108 142.5 244.858 142.083 244.125 141.783C242.375 141.058 240.683 140.175 238.9 139.567C238.067 139.283 236.992 139.267 236.158 139.542C234.417 140.108 232.783 141.033 231.05 141.65C229.892 142.067 229.6 142.708 229.6 143.892C229.642 179.333 229.633 214.783 229.642 250.225C229.642 250.742 229.642 251.258 229.642 251.808H245.008H245.017ZM130.717 251.85C130.717 251.008 130.717 250.333 130.717 249.65C130.725 214.792 130.717 179.933 130.8 145.067C130.8 142.933 130.217 141.908 128.258 141.117C121.992 138.592 123.925 138.567 117.8 141.125C117.4 141.292 117.017 141.542 116.6 141.65C115.4 141.958 115.142 142.7 115.142 143.892C115.175 179.333 115.167 214.783 115.167 250.225C115.167 250.742 115.208 251.25 115.233 251.842H130.717V251.85ZM131.883 140C132.142 141.142 132.525 142.058 132.525 142.975C132.575 159.95 132.592 176.925 132.583 193.9C132.567 212.775 132.517 231.65 132.508 250.533C132.508 251.05 132.75 251.75 133.125 252.067C135.042 253.683 134.883 255.792 134.708 258.183C133.45 257.142 132.375 256.192 131.225 255.333C130.758 254.983 130.125 254.658 129.567 254.65C125.617 254.592 121.667 254.617 117.717 254.642C117.367 254.642 116.808 254.742 116.708 254.967C116.083 256.3 115.567 257.683 114.942 259.233H136.258C136.258 258.2 136.192 257.225 136.275 256.267C136.408 254.633 136.075 253.275 134.817 252.05C134.25 251.5 133.967 250.408 133.967 249.567C133.925 212.4 133.925 175.225 133.883 138.058C133.883 136.792 134.2 135.975 135.292 135.317C135.908 134.942 136.742 134.267 136.767 133.708C136.9 129.875 136.833 126.033 136.833 122.167H113.25V132.525H135.292C135.358 132.658 135.425 132.783 135.492 132.917C135.083 133.4 134.767 134.075 134.25 134.342C132.517 135.208 131.975 136.542 132.208 138.392C132.283 139.008 131.967 139.667 131.892 140.017L131.883 140ZM224.058 259.2H245.4C244.917 257.992 244.417 256.933 244.075 255.833C243.783 254.908 243.333 254.567 242.317 254.583C238.608 254.658 234.9 254.567 231.2 254.667C230.417 254.683 229.558 255.108 228.883 255.575C227.783 256.333 226.817 257.275 225.55 258.342C225.7 256.342 224.908 254.467 226.417 253.092C227.667 251.95 227.917 250.667 227.908 249.067C227.867 213.808 227.875 178.558 227.883 143.3C227.883 142.333 227.525 141.225 228.625 140.508C228.75 140.425 228.742 140.05 228.708 139.825C228.558 138.858 228.217 137.883 228.242 136.925C228.267 135.95 227.9 135.433 227.158 134.908C226.325 134.325 225.608 133.567 224.85 132.892L225.067 132.408H247.292V122.117H223.725C223.725 125.658 223.792 129.108 223.692 132.558C223.658 133.825 223.925 134.717 225.108 135.267C226.35 135.842 226.7 136.8 226.7 138.192C226.658 175.35 226.667 212.508 226.625 249.658C226.625 250.425 226.083 251.233 225.667 251.942C225.208 252.717 224.25 253.358 224.125 254.15C223.883 255.758 224.05 257.433 224.05 259.2H224.058ZM165.575 83.4417C164.858 83.575 164.45 83.6833 164.033 83.7167C161 83.9917 159.333 85.525 158.708 88.5417C158.633 88.9083 158.217 89.375 157.858 89.4917C154.5 90.6167 153.25 92.3167 153.192 95.8167C153.192 96.2667 152.833 96.8917 152.45 97.1167C149.883 98.65 148.933 100.792 149.658 103.892C150.442 103.892 151.258 103.875 152.075 103.892C157.342 103.983 162.608 104.3 167.867 104.133C173.15 103.967 178.35 104.9 183.658 104.575C192.508 104.042 201.392 104.092 210.267 103.883C210.45 103.883 210.625 103.817 210.792 103.783C211.308 100.067 210.467 98.4333 207.042 96.6C207.642 92.8667 205.983 90.5083 202.375 89.375C202.108 89.2917 201.883 88.75 201.808 88.3833C201.308 85.7833 199.9 84.2833 197.383 83.8C196.658 83.6583 195.925 83.5667 194.942 83.4083C193.133 85.7417 191.183 88.225 189.267 90.7333C187.317 93.2667 185.392 95.825 183.408 98.4167C182.742 97.875 182.167 97.4 181.608 96.95C183.775 92.9333 185.933 89.025 187.992 85.0667C188.517 84.05 188.892 82.9 189.05 81.7667C189.475 78.7417 186.7 75.5 183.883 75.6333C184 75.7583 184.075 75.9 184.192 75.9583C187.325 77.4583 188.892 80.9833 186.758 84.8583C184.883 88.2583 183.142 91.7417 181.325 95.175C181.05 95.7 180.7 96.2 180.242 96.95C179.767 96.15 179.392 95.6 179.092 95.0167C177.583 92.0833 176.083 89.1417 174.592 86.2C171.992 81.0583 172.392 79.1667 176.825 75.6917C174.85 75.55 172.775 77.1083 172 79.3C171.258 81.3833 171.708 83.3083 172.717 85.1917C174.8 89.075 176.858 92.9667 178.933 96.8583C178.258 97.3583 177.675 97.7917 177.017 98.2833C173.183 93.3167 169.35 88.3583 165.567 83.45L165.575 83.4417ZM133.383 115.558C133.65 111.942 133.692 108.375 134.208 104.875C136.233 91.225 142.983 80.2083 153.367 71.3C160.975 64.775 169.825 60.5083 179.175 57.1583C179.675 56.975 180.342 56.9417 180.842 57.1083C194.042 61.475 205.925 67.9333 214.933 78.8583C221.667 87.025 225.692 96.3667 226.667 106.95C226.925 109.8 226.967 112.667 227.108 115.517C228.083 115.858 228.208 115.308 228.158 114.567C227.867 110.642 227.9 106.658 227.233 102.8C224.875 89.2 217.883 78.25 207.408 69.425C199.633 62.875 190.583 58.7 181.017 55.55C180.475 55.375 179.758 55.375 179.225 55.575C176.175 56.7083 173.108 57.8083 170.142 59.1333C156.108 65.4167 144.95 74.85 137.992 88.8167C133.942 96.95 132.2 105.575 132.417 114.625C132.433 115.425 132.608 115.85 133.367 115.558H133.383ZM141.533 106.417C141.692 106.475 141.842 106.542 142 106.6C142.183 106.2 142.483 105.817 142.542 105.392C142.775 103.658 142.767 101.875 143.158 100.192C144.958 92.4583 149.225 86.1583 154.808 80.6667C160.792 74.7833 168.033 70.8417 175.45 67.1C178.708 65.4583 181.4 65.2833 184.75 66.9833C192.508 70.9083 200.225 74.8333 206.367 81.1417C212.975 87.925 217.883 95.6 218.033 105.525C218.033 105.783 218.408 106.033 218.6 106.292C218.775 106.008 219.108 105.717 219.092 105.442C218.967 103.55 218.975 101.625 218.558 99.7917C216.75 91.9667 212.475 85.5167 206.858 79.9417C199.442 72.575 190.208 68.0917 180.767 63.9917C180.392 63.8333 179.808 63.9 179.417 64.0667C173.117 66.7917 166.967 69.8083 161.325 73.7667C153.142 79.5 146.65 86.6583 143.092 96.1667C141.858 99.4667 141.217 102.875 141.533 106.408V106.417ZM136.025 260.192C129.058 260.192 122.208 260.183 115.35 260.217C115.008 260.217 114.483 260.508 114.358 260.8C113.708 262.35 113.167 263.942 112.542 265.642H136.025V260.192ZM247.8 265.692C247.233 264.083 246.7 262.683 246.25 261.267C245.992 260.45 245.55 260.158 244.667 260.167C238.283 260.208 231.908 260.192 225.525 260.2C225.25 260.2 224.967 260.258 224.708 260.283V265.692H247.8ZM116.133 133.508V137.175H130.55V133.508H116.133ZM244.458 133.517H230.092V137.183H244.458V133.517ZM136.6 117.817H108.3C108.267 117.983 108.225 118.142 108.192 118.308C109.55 118.658 110.9 119.283 112.258 119.3C119.708 119.392 127.167 119.342 134.617 119.333C135.283 119.333 135.95 119.267 136.708 119.225C136.658 118.667 136.625 118.258 136.592 117.817H136.6ZM252.075 118.517C252.033 118.325 251.992 118.133 251.95 117.942H223.883C223.417 119.55 224.542 119.325 225.35 119.333C232.992 119.358 240.633 119.408 248.267 119.333C249.533 119.325 250.8 118.8 252.075 118.508V118.517Z" fill="#816840"/>
<path d="M242.992 106.475C242.475 102.433 242.108 96.9417 241.025 91.5917C235.867 66.0583 221.15 48.2667 197.042 38.3833C191.792 36.2333 186.383 34.475 181.042 32.5667C180.575 32.4 179.967 32.3 179.517 32.45C171 35.3 162.425 38.05 154.592 42.5333C136.242 53.025 124.85 68.75 120.2 89.2833C118.925 94.9 118.425 100.692 117.758 105.125C117.842 103.367 117.858 100.258 118.158 97.1833C118.917 89.45 120.825 82 123.933 74.8667C130.333 60.1917 140.742 49.15 154.617 41.3333C162.525 36.875 171.125 34.0667 179.658 31.125C179.992 31.0083 180.433 31.075 180.783 31.2C188.983 34.0333 197.283 36.6667 204.933 40.8417C224.408 51.4667 236.783 67.475 241.383 89.3167C242.675 95.45 242.958 101.658 243 106.475H242.992Z" fill="black"/>
<path d="M175.925 101.675C169.125 99.9833 162.333 98.2833 155.525 96.6C154.05 96.2333 154.3 95.1083 154.508 94.1583C155.083 91.55 157.875 89.9833 160.642 90.6C163.375 91.2083 165.675 92.6583 167.8 94.375C170.625 96.65 173.367 99.0333 176.142 101.375C176.067 101.475 175.992 101.583 175.917 101.683L175.925 101.675Z" fill="black"/>
<path d="M184.45 101.125C188.467 98.0167 192.417 94.8167 196.533 91.8417C198.317 90.55 200.483 89.9583 202.75 90.775C204.8 91.5083 206.1 93.2417 205.867 95.1583C205.808 95.6583 205.317 96.4 204.892 96.5083C198.292 98.2417 191.675 99.8917 185.058 101.55C184.967 101.575 184.867 101.542 184.767 101.533C184.658 101.4 184.558 101.267 184.45 101.133V101.125Z" fill="black"/>
<path d="M150.85 103.4C150.25 98.7417 153.925 97.3917 157.008 98.125C162.658 99.4667 168.292 100.85 173.942 102.208C174.692 102.392 175.458 102.525 176.2 102.742C176.608 102.858 176.975 103.092 177.642 103.4H150.85Z" fill="black"/>
<path d="M209.517 103.375H183.075C183.5 103.15 183.85 102.875 184.242 102.775C190.642 101.217 197.033 99.6333 203.442 98.15C207.092 97.3083 209.767 99.2667 209.683 102.583C209.683 102.767 209.608 102.95 209.517 103.375Z" fill="black"/>
<path d="M200.575 89.1417C195.1 89.525 191.683 93.3 187.967 96.55C186.667 97.6833 185.442 98.9083 184.175 100.092C184.075 100 183.967 99.9167 183.867 99.825C184.867 98.5667 185.892 97.3167 186.875 96.0333C189.15 93.0583 191.383 90.05 193.683 87.0917C194.642 85.8583 195.667 84.6333 197.55 85.0583C199.483 85.4917 200.275 86.5 200.575 89.15V89.1417Z" fill="black"/>
<path d="M176.258 99.875C175.408 99.1083 174.558 98.3417 173.692 97.5833C171.758 95.875 169.883 94.0917 167.867 92.4917C165.225 90.4 163.308 89.6667 160.092 89.1417C159.892 87.4333 160.742 85.9333 162.267 85.3083C163.917 84.6333 165.192 85.0083 166.467 86.6417C169.217 90.175 171.925 93.7417 174.667 97.2833C175.275 98.0667 175.967 98.775 176.617 99.525C176.5 99.6417 176.375 99.7583 176.258 99.875Z" fill="black"/>
<path d="M182.792 100.992C182.792 102.492 181.592 103.817 180.242 103.808C178.9 103.808 177.717 102.458 177.725 100.95C177.733 99.45 178.9 98.1 180.208 98.0583C181.583 98.0167 182.792 99.3917 182.792 100.992Z" fill="black"/>
</svg>
