<svg width="360" height="370" viewBox="0 0 360 370" fill="none" xmlns="http://www.w3.org/2000/svg">
<path d="M180 3C261.738 3 328 69.2619 328 151C328 191.575 300.77 230.324 268.198 263.477C236.354 295.889 200.123 322.3 180.062 339.786C170.87 331.051 157.42 320.195 142.444 307.715C126.681 294.578 109.13 279.565 92.7295 263.093C59.8328 230.052 32 191.558 32 151C32 69.2619 98.2619 3 180 3Z" fill="#E0E1D8" stroke="#919191" stroke-width="4"/>
<path d="M250.8 92.1583C251.592 92.1583 252.317 92.1167 253.033 92.1667C253.867 92.225 254.192 92.6 253.708 93.425C253.242 94.2167 252.775 95.0167 252.367 95.85C251.5 97.6167 251.192 99.4083 251.992 101.333C252.792 103.267 252.4 105.125 251.358 106.917C251.067 107.417 250.958 108.1 250.95 108.7C250.95 162.375 250.95 216.042 250.967 269.717C250.967 270.242 250.967 270.775 250.967 271.45H117.983C117.983 270.958 117.983 270.442 117.983 269.925C117.983 217.817 117.983 165.708 117.983 113.6C117.983 112.333 118.125 111.05 117.983 109.792C117.85 108.575 117.367 107.4 117.183 106.183C116.967 104.717 116.425 103.058 116.883 101.792C117.958 98.8333 116.983 96.4917 115.533 94.1C115.25 93.6333 115.042 93.125 114.667 92.375C115.983 92.2833 116.983 92.2167 118.05 92.15C118.258 89.5 118.417 86.8333 118.683 84.175C119.917 71.8083 123.983 60.4583 131.358 50.4333C141.908 36.0917 155.875 26.7833 173.442 23.675C192.442 20.3167 209.675 24.925 224.775 36.975C238.283 47.7583 246.242 61.95 249.458 78.825C250.225 82.825 250.317 86.9583 250.717 91.025C250.75 91.35 250.767 91.6833 250.8 92.1583ZM230.15 101.192H139.033V268.092H230.125V166.558C230.008 166.525 229.883 166.492 229.767 166.45C229.533 167.133 229.108 167.817 229.092 168.508C229.042 171.825 228.717 175.208 229.258 178.442C229.617 180.567 229.05 182 228 183.525C227.425 184.358 226.792 184.433 226.183 183.492C225.475 182.4 224.725 181.333 223.95 180.183C221.592 181.9 220.967 184.342 220.717 187.008H188.95C188.567 184.092 187.375 181.608 184.825 179.733C188 176.492 189.925 172.792 189.55 168.15H219.333C219.533 172.442 220.817 176.175 224.283 179.042C224.425 178.6 224.592 178.325 224.592 178.05C224.617 174.975 224.65 171.9 224.592 168.825C224.592 168.492 224.1 168.067 223.733 167.858C222.142 166.942 221.25 165.625 221.483 163.783C221.692 162.1 222.725 161 224.275 160.5C224.783 158.992 224.85 157.592 224.475 155.983C223.858 153.3 224.733 150.842 226.933 149.008C229.267 150.75 230.258 154.25 229.2 156.992C228.583 158.6 229.542 160.017 229.492 161.533C229.492 161.733 229.808 161.942 230.142 162.342V101.183L230.15 101.192ZM232.6 94.9833C234.125 79.5167 228.367 59.3667 209.425 47.3333C192.4 36.525 171.025 37.7333 155 50.425C146.9 56.8333 141.383 65.075 138.375 74.9667C136.392 81.5 135.825 88.1833 136.267 94.925H153.542C152.5 94.3333 151.592 93.875 150.742 93.325C143.817 88.8333 143.442 79.4583 150.067 74.5667C154.508 71.2833 159.483 70.225 164.842 71.825C167.033 72.4833 169.125 73.4667 171.258 74.3C168.908 72.7083 166.533 71.0833 164.017 69.7583C160.425 67.8667 158.017 68.325 154.983 71.075C154.642 71.3833 154.175 71.7583 153.758 71.775C151.392 71.8417 148.558 68.475 148.908 66.1083C149.008 65.4417 149.408 64.7667 150.017 65.275C151.417 66.45 152.283 65.725 153.308 64.775C153.783 64.3417 154.508 64.0833 155.15 63.9667C156.808 63.675 158.483 63.5083 160.192 63.2833C158.875 59.6583 159.633 56.4417 162.667 53.8083C165.267 51.55 169.092 50.9833 171.283 52.5417C173.008 53.775 172.95 53.7333 174.1 51.975C175.742 49.475 177.667 47.3083 181.017 47.2333C181.342 47.2333 181.725 46.8333 181.958 46.525C183.783 44.15 185.158 44.1667 186.992 46.5917C187.217 46.8917 187.617 47.225 187.95 47.25C191.017 47.5 192.983 49.35 194.625 51.7083C195.025 52.2917 195.417 52.8833 195.892 53.5917C199.358 50.4917 202.708 51.3083 205.842 53.6583C209.2 56.175 209.942 59.625 208.508 63.7C211.833 63.2417 214.875 63.4583 217.208 66.0583C217.533 65.8833 217.775 65.7 218.05 65.6083C218.542 65.4417 219.042 65.3333 219.542 65.2083C219.675 65.7583 219.95 66.3083 219.925 66.8417C219.817 68.9583 218.342 70.7167 216.2 71.4333C215.317 71.725 214.617 71.6917 213.833 70.975C212.058 69.3583 209.983 68.2 207.475 68.775C204.358 69.4917 201.875 71.4583 199.325 73.2667C199.992 73.1333 200.6 72.8667 201.208 72.6167C206.358 70.475 211.458 70.575 216.442 73.075C223.808 76.775 225.85 85.0417 220.767 91.0167C219.4 92.625 217.442 93.7417 215.867 94.9917H232.592L232.6 94.9833ZM137.483 268.933V99.6917H231.733V268.775H233.392V96.7917H135.717V268.933H137.483ZM130.225 92.0833C130.85 87.05 131.133 82.1583 132.108 77.4167C134.792 64.4 141.675 53.875 152.075 45.7167C164.042 36.3333 177.692 32.9333 192.683 35.0583C201.95 36.3667 210.192 40.175 217.383 46.1417C229.9 56.525 236.667 69.9583 238.158 86.1083C238.342 88.0833 238.417 90.0667 238.542 92.0583H249.275C248.858 87.9083 248.717 83.85 248.008 79.9C245.167 64.1 238.083 50.55 225.817 40.0333C210.175 26.625 192.1 21.4417 171.875 25.725C152.508 29.8333 138.083 41.0917 128.333 58.2833C123.717 66.425 121.225 75.3 120.225 84.5917C119.958 87.0417 119.942 89.525 119.8 92.0833H130.225ZM119.958 112.65V257.267H130.625V112.65H119.958ZM238.55 112.658V257.3H248.975V112.658H238.55ZM148.492 84.3417C148.425 86.6083 149.15 88.5667 150.658 90.2083C153.358 93.1417 156.8 94.7583 160.692 94.9583C165.55 95.2083 170.433 95.0333 175.308 95C175.667 95 176.017 94.675 176.367 94.5C176.117 94.1667 175.933 93.7 175.6 93.5167C173.067 92.1333 171.483 90.125 171.392 87.1667C171.358 86.0917 170.892 85.5083 169.958 85.0583C166.875 83.5667 163.65 82.8417 160.225 83.0083C158.158 83.1083 157.192 83.3417 157.817 86.1833C158.65 85.9583 159.658 85.3417 160.275 85.6083C160.933 85.9 161.233 87.025 161.725 87.8583C162.458 87.3833 163.142 86.9167 163.85 86.5C165.35 85.6167 166.233 86.1333 166.258 87.8917C166.283 89.6083 165.075 91.2667 163.1 92.05C159.7 93.3917 156.517 92.7833 153.558 90.7833C151.208 89.1917 149.65 86.9333 148.492 84.3333V84.3417ZM220.575 84.5C219.242 86.2583 218.025 88.275 216.417 89.8917C213.35 92.975 208.458 93.625 205.108 91.7C203.492 90.7667 202.517 89.0333 202.75 87.4833C202.95 86.0917 203.775 85.6667 204.992 86.3667C205.775 86.8167 206.5 87.3583 207.3 87.8917C207.508 87.3583 207.642 86.9417 207.817 86.55C208.275 85.5417 208.792 84.7667 209.933 85.9333C210.175 86.1833 210.667 86.1917 211.075 86.3167C211.383 83.8667 210.925 83.1583 209 83.025C205.425 82.775 202.05 83.5167 198.833 85.1083C197.95 85.55 197.558 86.1583 197.492 87.1417C197.308 90.1167 195.883 92.2667 193.167 93.575C192.783 93.7583 192.6 94.3583 192.175 94.9833C197.825 94.9833 202.992 95.0667 208.15 94.95C211.075 94.8833 213.775 93.8333 216.15 92.1083C218.792 90.1833 220.5 87.7 220.567 84.5083L220.575 84.5ZM190.592 185.792C192.617 185.792 194.95 185.792 197.283 185.792C204.208 185.792 211.133 185.808 218.058 185.817C218.717 185.817 219.3 185.892 219.65 184.983C220.392 183.025 221.35 181.142 222.308 179.025C219.833 176.658 218.325 173.383 218.158 169.525H190.875C190.9 173.458 189.292 176.7 187.017 179.267C188.267 181.542 189.383 183.575 190.608 185.792H190.592ZM210.875 88.15C211.9 89.075 212.933 89.1083 213.95 88.6583C218.192 86.8 220.617 80.475 216.808 76.7417C213.4 73.4 209.142 72.975 204.708 73.8C198.783 74.9 194.258 78.3333 190.408 82.775C188.958 84.45 187.658 86.25 186.283 88C187.267 88.7917 187.783 88.7583 188.367 87.85C189.583 85.975 190.792 84.0583 192.258 82.3917C195.792 78.3833 200 75.5417 205.667 75.9167C211.817 76.3167 214.758 80.975 212.45 86.6333C212.925 86.875 213.408 87.1083 213.883 87.35C213.875 87.4667 213.867 87.5917 213.85 87.7083C212.925 87.8417 212 87.9833 210.867 88.1417L210.875 88.15ZM182.433 87.9333C181.492 86.6667 180.633 85.375 179.642 84.2C176.183 80.1083 172.35 76.4833 167.158 74.6667C162.508 73.0333 157.925 72.775 153.55 75.4583C151.1 76.9667 149.95 79.1917 150.308 82.1333C150.658 85.0083 152.15 87.1417 154.608 88.525C155.633 89.1 156.883 89.3083 157.875 88.175C156.875 87.9917 155.975 87.825 155.075 87.6583C155.075 87.5333 155.083 87.4083 155.092 87.2833C155.617 87.0167 156.142 86.7417 156.558 86.525C156.192 85.775 155.767 85.1667 155.575 84.4917C154.658 81.225 157.008 77.4333 160.725 76.3167C165.017 75.025 168.867 76.225 172.442 78.65C175.9 81.0083 178.325 84.2917 180.458 87.8167C180.95 88.625 181.433 88.8167 182.433 87.9333ZM172.842 66.8667C171.592 66.5 170.492 66.2917 169.483 65.85C167.667 65.0667 167.342 63.725 168.433 62.0667C169.533 60.3917 171.167 59.5 173.017 58.8833C173.383 58.7583 173.975 58.3917 173.958 58.175C173.925 57.75 173.608 57.275 173.267 56.975C172.917 56.6667 172.433 56.475 171.975 56.3417C169.775 55.7 167.717 55.9417 166.017 57.6083C164.233 59.3667 164.333 61.575 164.842 63.7667C165.75 67.65 168.775 69.7667 172.008 71.3583C173.117 71.9083 173.425 72.7333 174.108 73.4083C176.825 76.0833 179.95 78.3917 181.825 81.8583C181.45 78.0833 180.467 74.5917 176.783 72.7833C174.183 71.5083 172.758 69.6833 172.842 66.8417V66.8667ZM187.058 81.7833C187.942 80.6167 188.7 79.425 189.633 78.4167C191.158 76.7833 192.833 75.275 194.392 73.675C194.983 73.0667 195.333 72.1583 196.008 71.6833C197.617 70.5583 199.45 69.75 201 68.5583C203.558 66.5917 204.45 63.7917 204.158 60.65C203.975 58.6583 202.833 57.175 200.992 56.425C199.142 55.6667 197.258 55.9083 195.55 56.9417C195.2 57.15 194.908 57.7 194.883 58.1083C194.867 58.3417 195.45 58.6333 195.783 58.8583C197.258 59.85 198.908 60.6417 200.175 61.85C201.792 63.3917 201.35 65.0917 199.267 65.9667C198.267 66.3917 197.15 66.5333 196.008 66.825C196.175 69.8833 194.675 71.7083 191.833 72.8667C188.85 74.0917 186.692 78.375 187.058 81.7583V81.7833ZM179.375 57.0333C181.025 60.325 182.808 63.9 184.425 67.125C186.05 63.9 187.833 60.3667 189.567 56.9333C187.9 55.575 186.142 54.15 184.567 52.8667C183.917 53.2833 183.267 53.7083 182.617 54.1333C182.308 54.3333 181.933 54.4667 181.675 54.7167C180.883 55.4667 180.133 56.2667 179.375 57.0333ZM237.075 269.867H249.017V264.767H237.075V269.867ZM119.95 264.733V269.883H131.758V264.733H119.95ZM210.333 80.1083C207.85 77.6333 204.233 76.925 200.958 78.2167C195.758 80.2667 192.4 84.325 189.6 88.9417C189.458 89.175 189.65 89.6167 189.717 90.3167C195.175 83.5667 201.358 79.2833 210.333 80.1083ZM178.942 90.0833C179.067 89.95 179.192 89.825 179.317 89.6917C179.275 89.4333 179.317 89.125 179.175 88.925C176.817 85.3333 174.308 81.8667 170.575 79.55C168.2 78.075 165.642 77.2583 162.817 77.75C161.267 78.025 159.85 78.6 158.517 80.175C167.642 79.1833 173.725 83.75 178.95 90.0917L178.942 90.0833ZM189.792 94.9917C189.675 92.5 187.167 90.325 184.4 90.2667C181.758 90.2083 179.308 92.3417 179.025 94.9917H189.792ZM117.633 93.9083C117.517 94.0083 117.4 94.1083 117.275 94.2167C117.892 94.975 118.483 96.3583 119.142 96.3917C123.167 96.6 127.2 96.4917 131.292 96.4917V93.9083H117.633ZM237.575 96.475C241.292 96.475 244.842 96.475 248.392 96.475C250.783 96.475 250.908 96.35 251.158 93.95H237.575V96.475ZM237.675 262.283H248.9V259.975H237.675V262.283ZM120.217 262.325H131.258V259.983H120.217V262.325ZM171.317 62.8417C175.158 63.3 178.625 64.475 181.267 67.6C181.167 65.1917 179.492 62.2667 177.725 61.2333C175.45 59.9 172.633 60.5333 171.325 62.8417H171.317ZM197.558 62.85C196.308 60.975 194.358 60.175 192.333 60.7667C189.017 61.7333 188.192 64.625 187.425 67.5667C190.025 64.425 193.542 63.275 197.558 62.85ZM249.65 105.608C251.275 103.208 250.283 100.942 249.058 99.3583C248.3 98.375 246.075 98.525 244.425 98.1417C244.717 99.45 245.033 100.383 245.108 101.342C245.175 102.242 244.983 103.158 244.908 104.075C245.05 104.117 245.192 104.158 245.333 104.208C245.892 103.258 246.45 102.3 247.233 100.975C248.1 102.633 248.825 104.017 249.658 105.608H249.65ZM124.108 98.525C123.892 98.525 123.508 98.5167 123.125 98.525C119.65 98.6333 118.858 99.4167 118.642 102.958C118.617 103.392 118.617 103.842 118.708 104.267C118.783 104.642 119 104.983 119.317 105.717C119.792 104.608 120.05 103.892 120.408 103.225C120.775 102.533 121.242 101.892 121.708 101.15C122.483 102.325 123.117 103.275 123.817 104.317C123.925 102.217 124.017 100.408 124.108 98.525ZM120.3 109.908H131.242V108.325H120.3V109.908ZM237.842 109.942H248.608V108.308H237.842V109.942ZM186.7 75.0333C188.033 71.9667 191.392 70.3417 192.725 66.85C189.033 67.8333 186.575 71.2833 186.7 75.0333ZM182.167 75.0167C182.433 71.525 179.35 67.2417 175.892 67.15C178.133 69.9667 180.175 72.5167 182.167 75.0167ZM128 98.9V104.408C128.683 103.583 129.142 103.033 129.7 102.375C130.042 103.308 130.35 104.133 130.658 104.958C130.825 104.983 130.992 105.008 131.158 105.033C131.325 104.442 131.683 103.825 131.608 103.267C131.333 101.208 130.258 99.7 128 98.9083V98.9ZM239.167 102.475C239.783 103.183 240.308 103.792 241.05 104.642C240.933 103.408 240.8 102.55 240.792 101.7C240.783 100.817 240.892 99.925 240.95 99C238.8 99.6833 237.242 101.658 237.292 103.642C237.3 104.067 237.683 104.492 238.067 105.267C238.542 104.05 238.825 103.333 239.158 102.467L239.167 102.475ZM206.275 61.4417C207.117 58.4167 206.325 56 204.175 54.5833C202.692 53.6 201.725 53.525 200.733 54.3167C204.267 56.1333 204.85 56.8667 206.275 61.4417ZM162.533 61.4583C163.2 57.8667 165.033 55.4833 168.475 54.15C166.467 53.4583 165.1 54.075 163.95 55.2C162.267 56.8417 161.542 58.7917 162.533 61.4583ZM181.383 49.0167C179 49.2083 177.633 50.7917 176.792 54.075C178.175 54.375 178.592 54.1333 179.167 52.7083C179.672 51.4472 180.533 51.1722 181.75 51.8833C181.617 50.875 181.508 49.9833 181.383 49.0167ZM192.417 53.9333C190.817 52.1417 190.858 49.0833 187.542 49.0417C187.408 49.8833 187.267 50.7167 187.125 51.65C189.075 50.8667 189.2 50.925 189.825 52.725C189.858 52.8167 189.858 52.9167 189.892 53.0083C190.267 54.1417 191.008 54.475 192.425 53.9333H192.417ZM195.375 87.35C194.008 88.575 192.817 89.6 191.683 90.6833C191.467 90.8917 191.483 91.35 191.4 91.6917C191.767 91.7333 192.15 91.875 192.483 91.7917C194.117 91.4 195.408 89.5667 195.375 87.35ZM173.525 87.3C173.558 89.4417 174.95 91.3833 176.425 91.7417C176.7 91.8083 177.125 91.7167 177.317 91.525C177.442 91.4 177.367 90.8667 177.2 90.7C176.1 89.625 174.95 88.6 173.525 87.3ZM212.308 65.875C210.267 64.825 206.325 65.9083 205.4 67.8167C207.742 67.1583 209.992 66.525 212.308 65.875ZM163.708 67.9083C162.367 65.8667 159.408 64.975 156.475 65.7C158.933 66.45 161.167 67.1333 163.708 67.9083ZM184.8 51.3917C185.05 50.175 185.333 49.2083 185.4 48.2167C185.425 47.8667 184.9 47.475 184.625 47.1083C184.25 47.4333 183.658 47.6833 183.525 48.0917C183.142 49.2417 183.508 50.2667 184.792 51.3917H184.8ZM156.033 67.4333C154.133 66.7583 152.833 67.0667 152.367 68.1333C151.9 69.1917 152.367 70.0583 153.875 70.7083C153.65 69.075 153.867 67.6917 156.033 67.4333ZM215.075 71.0083C216.075 70.1 217.275 69.5833 216.525 68.1417C215.925 66.975 214.575 66.625 213.183 67.2583C215.342 68.3417 215.517 68.6667 215.083 71.0167L215.075 71.0083ZM159.917 90.25C159.975 90.4333 160.025 90.6167 160.083 90.7917C161.933 91.075 162.9 90.6917 163.492 89.0667C162.117 89.525 161.017 89.8833 159.917 90.25ZM208.825 91.0917C207.8 89.2167 207.292 89.0667 205.4 90.1C206.542 90.4333 207.683 90.7667 208.825 91.0917Z" fill="#AFA7A7"/>
<path d="M145.275 106.092H180.108V160.542H145.275V106.092ZM146.608 107.567V159.15H178.875V107.567H146.608Z" fill="black"/>
<path d="M223.375 254.125H188.083V192.067H223.375V254.125ZM221.967 193.4H189.367V252.867H221.967V193.4Z" fill="black"/>
<path d="M180.175 192.083V254.075H145.267V192.083H180.175ZM146.608 193.333V252.85H178.883C178.917 252.342 178.967 251.917 178.967 251.492C178.958 232.742 178.942 213.992 178.917 195.25C178.917 193.242 178.9 193.233 176.95 193.242C167.292 193.25 157.642 193.258 147.983 193.275C147.558 193.275 147.125 193.317 146.608 193.342V193.333Z" fill="black"/>
<path d="M223.342 160.575H188.075V106.183H223.342V160.575ZM189.325 159.108H221.967V107.642H189.325V159.108Z" fill="black"/>
<path d="M147.417 168.167H177.842C177.425 172.808 179.267 176.55 182.492 179.883C179.567 181.458 178.55 184.067 178.05 187.008H146.433C146.3 184.017 145.108 181.55 142.708 179.617C145.833 176.467 147.767 172.875 147.425 168.167H147.417ZM144.867 179.175C146.033 181.508 147.058 183.567 148.167 185.8C150.075 185.8 152.267 185.8 154.45 185.8C161.467 185.8 168.483 185.808 175.5 185.8C176.125 185.8 176.733 185.958 177.125 185.033C177.942 183.108 179.017 181.283 180.1 179.2C177.742 176.75 176.542 173.342 176.358 169.517H148.808C148.65 173.333 147.258 176.625 144.867 179.192V179.175Z" fill="black"/>
<path d="M246.683 89.9083H240.633C240.392 87.5667 240.2 85.3 239.917 83.05C238.242 69.6833 232.783 58.1583 223.15 48.7C215.217 40.9083 205.925 35.5667 194.942 33.45C178.383 30.2667 163.408 33.9083 150.208 44.3917C139.7 52.7417 132.867 63.55 130.008 76.7C129.125 80.775 128.942 85 128.442 89.1583C128.392 89.5417 128.358 89.925 128.308 90.4333H121.683C122.083 86.4667 122.233 82.6167 122.908 78.85C125.442 64.6 131.883 52.3833 142.483 42.475C151.925 33.65 163.05 28.0167 175.842 26.2833C193.267 23.9167 208.933 28.65 222.633 39.5667C235.058 49.4583 242.417 62.55 245.625 78C246.375 81.6 246.467 85.3333 246.842 89.0083C246.867 89.2833 246.742 89.575 246.675 89.9167L246.683 89.9083ZM126.083 88.2333C126.667 73.1917 131.658 59.925 141.908 48.8583C152.158 37.7917 164.742 31.2333 179.975 29.7417C179.667 29.3167 179.333 29.0083 179.017 29.025C178.05 29.075 177.083 29.2333 176.117 29.3667C167.517 30.5583 159.375 33.1417 152.267 38.2C137.133 48.9583 127.65 63.4083 124.683 81.9C124.35 83.9833 124.367 86.1167 124.217 88.2333H126.083ZM189.192 29.4917C189.25 29.6417 189.317 29.7833 189.375 29.9333C190.425 30.075 191.483 30.2083 192.533 30.3667C193.592 30.5333 194.658 30.65 195.692 30.9167C218.725 36.9583 234.317 50.9083 241.017 74.075C242.183 78.1083 242.542 82.3833 243.258 86.55C243.392 87.3 243.433 88.0917 244.525 87.4667C244.525 86.9333 244.567 86.4417 244.525 85.9583C243.583 77.2667 241.25 69 237.117 61.2583C233.317 54.15 228.792 47.5917 222.658 42.3C213.358 34.2833 202.392 30.1917 190.3 28.8917C189.958 28.8583 189.567 29.275 189.2 29.475L189.192 29.4917Z" fill="black"/>
<path d="M122.867 253.958V116.792H129.067V253.958C128.1 253.958 127.1 253.958 126.092 253.958C125.083 253.958 124.05 253.958 122.867 253.958ZM125.358 119.217V251.542C125.9 251.492 126.3 251.458 126.783 251.408V119.217H125.358Z" fill="#919191"/>
<path d="M239.975 116.35H246.133V254.308H239.975V116.35ZM243.708 251.892V118.883C241.917 118.417 242.267 119.625 242.267 120.483C242.258 163.75 242.25 207.017 242.25 250.283C242.25 250.758 242.25 251.242 242.25 251.825C242.792 251.85 243.192 251.867 243.708 251.892Z" fill="#919191"/>
<path d="M191.692 184.467C190.75 182.625 189.917 180.983 189.058 179.3C189.8 178.042 190.742 176.733 191.358 175.283C191.958 173.875 192.225 172.317 192.65 170.75H216.45C217.067 172.575 217.3 174.625 218.35 176.058C219.983 178.283 220.142 179.95 218.742 182.45C217.833 184.075 217.092 184.492 215.45 184.475C208.233 184.417 201.017 184.467 193.8 184.475C193.025 184.475 192.25 184.475 191.683 184.475L191.692 184.467ZM193.642 180.975C200.567 180.975 207.533 180.975 214.492 180.975C216.142 180.975 216.825 179.825 216.142 178.267C215.733 177.333 215.158 176.458 214.892 175.483C214.533 174.175 213.742 173.925 212.542 173.942C207.625 174.017 202.7 174.033 197.783 174.058C195.175 174.075 195.167 174.058 194.242 176.458C193.7 177.867 192.55 179.175 193.642 180.983V180.975Z" fill="black"/>
<path d="M147.808 157.717V108.9H177.192V157.717H147.808ZM173.633 153.917V112.775H151.408V153.917H173.633Z" fill="black"/>
<path d="M190.667 194.667H220.492V251.433H190.667V194.667ZM216.95 247.65V198.533H194.325V247.65H216.95Z" fill="black"/>
<path d="M147.875 194.658H177.167V251.408H147.875V194.658ZM151.442 198.508V247.608H173.65V198.508H151.442Z" fill="black"/>
<path d="M190.617 108.842H220.5V157.708H190.617V108.842ZM216.933 153.9C216.967 153.375 217.008 152.95 217.008 152.525C217.025 139.742 217.008 126.95 217.067 114.167C217.067 112.833 216.558 112.683 215.442 112.692C208.767 112.75 202.083 112.75 195.408 112.775C195.042 112.775 194.675 112.833 194.317 112.858V153.9H216.933Z" fill="black"/>
<path d="M150.508 170.733H174.7C175.208 172.525 175.592 174.325 176.233 176.017C176.675 177.175 177.95 178.175 177.992 179.275C178.025 180.3 176.883 181.35 176.325 182.417C176.017 183.008 175.842 183.667 175.542 184.458C173.708 184.458 171.817 184.458 169.925 184.458C163.492 184.458 157.067 184.442 150.633 184.483C149.575 184.483 149.017 184.258 148.667 183.117C148.25 181.75 147.417 180.517 146.8 179.292C147.583 178 148.525 176.733 149.142 175.325C149.758 173.917 150.042 172.367 150.517 170.733H150.508ZM152.967 174.017C152.258 175.617 151.658 176.942 151.083 178.275C150.558 179.483 151.283 180.967 152.392 180.967C159.008 180.967 165.625 180.967 172.25 180.967C173.942 180.967 174.7 179.783 174.075 178.2C173.742 177.342 173.25 176.525 173.067 175.633C172.767 174.15 171.825 173.925 170.542 173.95C166.842 174.008 163.142 174.008 159.45 174.025C157.267 174.033 155.083 174.025 152.967 174.025V174.017Z" fill="black"/>
<path d="M194.433 179.983C195.025 178.258 195.458 176.85 196.008 175.475C196.1 175.242 196.642 175.067 196.975 175.067C202.425 175.042 207.875 175.05 213.392 175.05C213.875 176.233 214.325 177.4 214.817 178.55C215.233 179.517 214.867 179.975 213.9 179.975C207.575 179.992 201.258 179.975 194.433 179.975V179.983ZM213.517 178.808C212.867 176.3 212.867 176.283 210.542 176.275C206.592 176.258 202.642 176.25 198.692 176.267C196.517 176.267 196.342 176.475 196.308 178.808H213.517Z" fill="black"/>
<path d="M152.75 113.825H172.483V152.983H152.75V113.825ZM171.317 115.025H153.942V151.817H171.317V115.025Z" fill="black"/>
<path d="M195.542 199.467H215.775V246.642C215.608 246.675 215.383 246.758 215.158 246.758C209.017 246.767 202.875 246.758 196.733 246.792C195.817 246.792 195.45 246.617 195.458 245.592C195.492 230.567 195.475 215.533 195.483 200.508C195.483 200.225 195.517 199.933 195.55 199.467H195.542ZM214.6 245.483V200.733H196.858V245.483H214.6Z" fill="black"/>
<path d="M172.508 246.667H152.725V199.55H172.508V246.667ZM171.317 245.492V200.792H153.925V245.492H171.317Z" fill="black"/>
<path d="M215.8 153H195.575V113.858H215.8V153ZM214.567 151.833V115.025H196.867V151.833H214.567Z" fill="black"/>
<path d="M171.508 175.05C171.967 176.292 172.375 177.383 172.758 178.483C173.1 179.458 172.767 179.983 171.692 179.983C165.6 179.983 159.5 179.967 153.408 179.983C152.567 179.983 152.292 179.692 152.492 178.817C153.325 175.142 153.408 175.05 157.117 175.05C161.892 175.05 166.667 175.05 171.508 175.05ZM171.458 178.792C171.008 176.317 171.008 176.3 168.833 176.292C164.65 176.267 160.458 176.267 156.275 176.267C154.375 176.267 154 176.7 154 178.792H171.458Z" fill="black"/>
</svg>
